<svg width="193" height="111" viewBox="0 0 193 111" fill="none" xmlns="http://www.w3.org/2000/svg">
<g filter="url(#filter0_d_1_1058)">
<mask id="path-1-inside-1_1_1058" fill="white">
<path d="M7.42004 28.6797C7.42004 15.4249 18.1652 4.67969 31.42 4.67969H161.51C174.765 4.67969 185.51 15.4249 185.51 28.6797V76.6797C185.51 89.9345 174.765 100.68 161.51 100.68H31.4201C18.1652 100.68 7.42004 89.9345 7.42004 76.6797V28.6797Z"/>
</mask>
<path d="M7.42004 28.6797C7.42004 15.4249 18.1652 4.67969 31.42 4.67969H161.51C174.765 4.67969 185.51 15.4249 185.51 28.6797V76.6797C185.51 89.9345 174.765 100.68 161.51 100.68H31.4201C18.1652 100.68 7.42004 89.9345 7.42004 76.6797V28.6797Z" fill="white" fill-opacity="0.01" shape-rendering="crispEdges"/>
<path d="M31.42 5.67969H161.51V3.67969H31.42V5.67969ZM184.51 28.6797V76.6797H186.51V28.6797H184.51ZM161.51 99.6797H31.4201V101.68H161.51V99.6797ZM8.42004 76.6797V28.6797H6.42004V76.6797H8.42004ZM31.4201 99.6797C18.7175 99.6797 8.42004 89.3822 8.42004 76.6797H6.42004C6.42004 90.4868 17.6129 101.68 31.4201 101.68V99.6797ZM184.51 76.6797C184.51 89.3822 174.213 99.6797 161.51 99.6797V101.68C175.317 101.68 186.51 90.4868 186.51 76.6797H184.51ZM161.51 5.67969C174.213 5.67969 184.51 15.9771 184.51 28.6797H186.51C186.51 14.8726 175.317 3.67969 161.51 3.67969V5.67969ZM31.42 3.67969C17.6129 3.67969 6.42004 14.8726 6.42004 28.6797H8.42004C8.42004 15.9771 18.7175 5.67969 31.42 5.67969V3.67969Z" fill="#838383" fill-opacity="0.25" mask="url(#path-1-inside-1_1_1058)"/>
<g clip-path="url(#clip0_1_1058)">
<g clip-path="url(#clip1_1_1058)">
<g clip-path="url(#clip2_1_1058)">
<path d="M50.4237 56.3702C51.5664 56.3887 54.0529 56.4289 54.0705 54.8338C54.0878 53.1833 51.6161 53.234 50.4548 53.2579C50.3352 53.2603 50.2296 53.2624 50.142 53.2624V56.3669C50.2221 56.3669 50.3171 56.3684 50.4237 56.3702Z" fill="#009FE8"/>
<path d="M50.3306 51.8496C51.2517 51.8807 53.4201 51.9539 53.438 50.4646C53.4554 48.954 51.396 49.0009 50.4245 49.023C50.3239 49.0253 50.2349 49.0274 50.1611 49.0274V51.8444C50.2112 51.8456 50.268 51.8476 50.3306 51.8496Z" fill="#009FE8"/>
<path fill-rule="evenodd" clip-rule="evenodd" d="M63.3839 47.8393C63.3839 63.1317 51.1385 67.2901 51.1385 67.2901C51.1385 67.2901 38.8931 63.1317 38.8931 47.8393V42.3394C38.8931 41.7453 39.353 41.2471 39.9471 41.2088C42.17 41.1129 47.44 40.653 51.1385 38.6792C54.837 40.653 60.1069 41.1129 62.3299 41.2088C62.9239 41.2471 63.3839 41.7453 63.3839 42.3394V47.8393ZM52.6907 47.4369C54.5112 47.6093 55.9293 48.1842 56.0826 49.8515C56.1976 51.0779 55.6802 51.8061 54.8562 52.1894C56.1976 52.5151 57.0216 53.3392 56.8491 55.1214C56.6192 57.3443 54.9711 57.9383 52.5949 58.0533V60.3913H51.1768V58.0917C50.8127 58.0917 50.4294 58.0917 50.0462 58.0725V60.3913H48.6472V58.0533C48.3215 58.0342 46.0793 58.0533 46.0793 58.0533L46.0985 56.3478H47.6891V48.8933H45.8877V47.4177C45.8877 47.4177 48.4173 47.3985 48.7239 47.3985L48.7047 45.0797H50.1228V47.3602H51.2726V45.0989H52.6907V47.4369Z" fill="#009FE8"/>
<path d="M87.8923 57.9861C87.8923 59.2125 87.6431 60.2282 87.1641 61.0522C86.685 61.8762 86.0334 62.547 85.2477 63.0452C84.4428 63.5434 83.5422 63.9075 82.5266 64.1375C81.5108 64.3483 80.4569 64.4632 79.4029 64.4632H70.5303V42.1763H79.4029C80.2652 42.1763 81.1467 42.2721 82.0475 42.4446C82.9481 42.617 83.7722 42.9236 84.5004 43.3644C85.2286 43.8052 85.8227 44.3801 86.3017 45.1083C86.7616 45.8364 86.9916 46.7755 86.9916 47.9061C86.9916 49.1517 86.6659 50.1674 85.976 50.9722C85.3052 51.7771 84.4237 52.3712 83.3314 52.7161V52.7736C83.9638 52.8886 84.5578 53.0802 85.1136 53.3677C85.6693 53.6551 86.1484 54.0192 86.5509 54.46C86.9533 54.9007 87.2791 55.4182 87.5282 56.0122C87.7581 56.5871 87.8923 57.2386 87.8923 57.9861ZM81.7792 48.6343C81.7792 47.8869 81.4917 47.3312 80.9168 46.9863C80.3419 46.6413 79.4796 46.4688 78.3489 46.4688H75.7044V51.0681H78.5981C79.6137 51.0681 80.3802 50.8573 80.936 50.4548C81.5108 50.0333 81.7792 49.4201 81.7792 48.6343ZM82.5074 57.4686C82.5074 56.5488 82.1624 55.8973 81.4725 55.5523C80.7826 55.1882 79.8628 55.0157 78.6938 55.0157H75.7044V60.1132H78.7322C79.1538 60.1132 79.5945 60.0749 80.0353 59.9982C80.4761 59.9215 80.8976 59.7874 81.2617 59.615C81.6258 59.4233 81.9325 59.155 82.1624 58.8101C82.3924 58.4651 82.5074 58.0244 82.5074 57.4686Z" fill="white"/>
<path d="M95.0402 43.786C95.0402 44.1884 94.9636 44.5525 94.8103 44.8975C94.657 45.2425 94.4462 45.549 94.1779 45.7982C93.9096 46.0473 93.603 46.2389 93.2389 46.3922C92.8748 46.5455 92.4915 46.6031 92.0891 46.6031C91.2459 46.6031 90.556 46.3347 89.9811 45.7599C89.4062 45.2041 89.1379 44.5334 89.1379 43.7668C89.1379 43.3836 89.2145 43.0195 89.3679 42.6745C89.5212 42.3296 89.732 42.023 90.0003 41.7739C90.2686 41.5247 90.5944 41.3139 90.9392 41.1606C91.3034 41.0073 91.6867 40.9307 92.1082 40.9307C92.5107 40.9307 92.8939 41.0073 93.258 41.1415C93.6221 41.2948 93.9479 41.4864 94.197 41.7355C94.4653 41.9846 94.6761 42.2913 94.8294 42.6362C94.9636 43.0003 95.0402 43.3836 95.0402 43.786ZM89.502 48.7876H94.6761V64.4633H89.502V48.7876Z" fill="white"/>
<path d="M104.028 52.6203V58.6184C104.028 59.3658 104.162 59.9024 104.449 60.2856C104.737 60.6497 105.235 60.8414 105.983 60.8414C106.232 60.8414 106.5 60.8222 106.787 60.7839C107.075 60.7455 107.305 60.6881 107.496 60.5923L107.554 64.3675C107.19 64.5016 106.749 64.5974 106.193 64.6932C105.638 64.789 105.101 64.8273 104.545 64.8273C103.491 64.8273 102.61 64.6932 101.901 64.4249C101.192 64.1566 100.617 63.7925 100.176 63.2943C99.7544 62.796 99.4287 62.2211 99.237 61.5312C99.0454 60.8414 98.9496 60.094 98.9496 59.2508V52.6203H96.4775V48.7876H98.9688V44.6675H104.047V48.7876H107.726V52.6203H104.028Z" fill="white"/>
<path d="M126.41 64.5019C124.954 64.866 123.364 65.0385 121.639 65.0385C119.856 65.0385 118.208 64.7511 116.714 64.1953C115.219 63.6204 113.916 62.8347 112.843 61.7999C111.77 60.765 110.908 59.5386 110.313 58.1013C109.7 56.6641 109.394 55.0544 109.394 53.2913C109.394 51.5092 109.7 49.8995 110.333 48.443C110.946 46.9866 111.808 45.7602 112.9 44.7445C113.993 43.7288 115.277 42.9431 116.733 42.4065C118.208 41.87 119.78 41.5825 121.486 41.5825C123.249 41.5825 124.877 41.8508 126.392 42.3874C127.905 42.924 129.132 43.633 130.071 44.5528L126.679 48.4238C126.162 47.8106 125.453 47.3123 124.609 46.9291C123.747 46.5458 122.769 46.3542 121.677 46.3542C120.738 46.3542 119.856 46.5267 119.071 46.8716C118.266 47.2166 117.576 47.6957 117.001 48.3281C116.408 48.9413 115.947 49.6886 115.641 50.5318C115.315 51.375 115.143 52.314 115.143 53.3105C115.143 54.3453 115.296 55.2843 115.584 56.1467C115.871 57.0091 116.312 57.7564 116.886 58.3697C117.461 58.9829 118.171 59.4811 119.032 59.8261C119.876 60.171 120.853 60.3435 121.945 60.3435C122.578 60.3435 123.172 60.3051 123.747 60.2093C124.303 60.1135 124.84 59.9602 125.318 59.7494V55.6868H121.064V51.2984H130.262V63.103C129.132 63.6779 127.867 64.1378 126.41 64.5019Z" fill="white"/>
<path d="M149.637 56.5681C149.637 57.8521 149.407 59.0018 148.947 60.0559C148.487 61.0906 147.854 61.9722 147.05 62.7004C146.245 63.4286 145.325 63.9843 144.271 64.3868C143.217 64.7892 142.106 64.9808 140.898 64.9808C139.729 64.9808 138.599 64.7892 137.544 64.3868C136.491 63.9843 135.552 63.4286 134.766 62.7004C133.981 61.9722 133.348 61.0906 132.888 60.0559C132.428 59.021 132.198 57.8521 132.198 56.5681C132.198 55.2842 132.428 54.1344 132.888 53.0995C133.348 52.0647 133.981 51.2024 134.766 50.4933C135.552 49.7843 136.472 49.2285 137.544 48.8644C138.599 48.4811 139.729 48.2896 140.898 48.2896C142.087 48.2896 143.217 48.4811 144.271 48.8644C145.325 49.2477 146.245 49.7843 147.05 50.4933C147.854 51.2024 148.468 52.0839 148.947 53.0995C149.407 54.1344 149.637 55.2842 149.637 56.5681ZM144.674 56.5681C144.674 56.0698 144.597 55.5716 144.424 55.0925C144.252 54.6134 144.022 54.1919 143.696 53.8086C143.389 53.4445 142.987 53.1378 142.528 52.9079C142.067 52.678 141.531 52.563 140.917 52.563C140.304 52.563 139.768 52.678 139.308 52.9079C138.848 53.1378 138.465 53.4445 138.158 53.8086C137.852 54.1727 137.622 54.5943 137.468 55.0925C137.315 55.5716 137.238 56.0698 137.238 56.5681C137.238 57.0663 137.315 57.5646 137.468 58.0437C137.622 58.5228 137.852 58.9635 138.177 59.3468C138.483 59.7301 138.887 60.0559 139.346 60.2858C139.806 60.5158 140.343 60.6308 140.956 60.6308C141.569 60.6308 142.106 60.5158 142.565 60.2858C143.026 60.0559 143.409 59.7492 143.735 59.3468C144.041 58.9635 144.291 58.5228 144.443 58.0437C144.597 57.5646 144.674 57.0663 144.674 56.5681Z" fill="white"/>
<path d="M152.262 61.3975C153.24 61.3975 154.064 62.164 154.064 63.1797C154.064 64.2145 153.221 64.981 152.262 64.981C151.285 64.981 150.441 64.2145 150.441 63.1797C150.441 62.1448 151.266 61.3975 152.262 61.3975ZM152.262 61.685C151.438 61.685 150.787 62.3365 150.787 63.1797C150.787 64.0612 151.438 64.6744 152.262 64.6744C153.086 64.6744 153.719 64.042 153.719 63.1797C153.719 62.3173 153.067 61.685 152.262 61.685ZM151.879 64.2145H151.553V62.1448H152.339C152.837 62.1448 153.067 62.3365 153.067 62.7389C153.067 63.103 152.837 63.2754 152.53 63.3138L153.125 64.2145H152.78L152.224 63.3138H151.86V64.2145H151.879ZM151.879 63.0647H152.262C152.645 63.0647 152.78 62.9497 152.78 62.7198C152.78 62.5281 152.684 62.4131 152.319 62.4131H151.898V63.0647H151.879Z" fill="white"/>
</g>
</g>
</g>
</g>
<defs>
<filter id="filter0_d_1_1058" x="0.420044" y="0.679688" width="192.09" height="110" filterUnits="userSpaceOnUse" color-interpolation-filters="sRGB">
<feFlood flood-opacity="0" result="BackgroundImageFix"/>
<feColorMatrix in="SourceAlpha" type="matrix" values="0 0 0 0 0 0 0 0 0 0 0 0 0 0 0 0 0 0 127 0" result="hardAlpha"/>
<feMorphology radius="1" operator="erode" in="SourceAlpha" result="effect1_dropShadow_1_1058"/>
<feOffset dy="3"/>
<feGaussianBlur stdDeviation="4"/>
<feComposite in2="hardAlpha" operator="out"/>
<feColorMatrix type="matrix" values="0 0 0 0 0 0 0 0 0 0 0 0 0 0 0 0 0 0 0.08 0"/>
<feBlend mode="normal" in2="BackgroundImageFix" result="effect1_dropShadow_1_1058"/>
<feBlend mode="normal" in="SourceGraphic" in2="effect1_dropShadow_1_1058" result="shape"/>
</filter>
<clipPath id="clip0_1_1058">
<rect width="116.49" height="29.3" fill="white" transform="translate(38.2201 38.0195)"/>
</clipPath>
<clipPath id="clip1_1_1058">
<rect width="116.49" height="29.3" fill="white" transform="translate(38.2201 38.0195)"/>
</clipPath>
<clipPath id="clip2_1_1058">
<rect width="116.485" height="29.3" fill="white" transform="translate(38.2224 38.0195)"/>
</clipPath>
</defs>
</svg>
