<svg width="237" height="111" viewBox="0 0 237 111" fill="none" xmlns="http://www.w3.org/2000/svg">
<g filter="url(#filter0_d_1_1063)">
<mask id="path-1-inside-1_1_1063" fill="white">
<path d="M7.50977 28.6797C7.50977 15.4249 18.2549 4.67969 31.5098 4.67969H205.2C218.455 4.67969 229.2 15.4249 229.2 28.6797V76.6797C229.2 89.9345 218.455 100.68 205.2 100.68H31.5098C18.2549 100.68 7.50977 89.9345 7.50977 76.6797V28.6797Z"/>
</mask>
<path d="M7.50977 28.6797C7.50977 15.4249 18.2549 4.67969 31.5098 4.67969H205.2C218.455 4.67969 229.2 15.4249 229.2 28.6797V76.6797C229.2 89.9345 218.455 100.68 205.2 100.68H31.5098C18.2549 100.68 7.50977 89.9345 7.50977 76.6797V28.6797Z" fill="white" fill-opacity="0.01" shape-rendering="crispEdges"/>
<path d="M31.5098 5.67969H205.2V3.67969H31.5098V5.67969ZM228.2 28.6797V76.6797H230.2V28.6797H228.2ZM205.2 99.6797H31.5098V101.68H205.2V99.6797ZM8.50977 76.6797V28.6797H6.50977V76.6797H8.50977ZM31.5098 99.6797C18.8072 99.6797 8.50977 89.3822 8.50977 76.6797H6.50977C6.50977 90.4868 17.7027 101.68 31.5098 101.68V99.6797ZM228.2 76.6797C228.2 89.3822 217.902 99.6797 205.2 99.6797V101.68C219.007 101.68 230.2 90.4868 230.2 76.6797H228.2ZM205.2 5.67969C217.902 5.67969 228.2 15.9771 228.2 28.6797H230.2C230.2 14.8726 219.007 3.67969 205.2 3.67969V5.67969ZM31.5098 3.67969C17.7026 3.67969 6.50977 14.8726 6.50977 28.6797H8.50977C8.50977 15.9771 18.8072 5.67969 31.5098 5.67969V3.67969Z" fill="#838383" fill-opacity="0.25" mask="url(#path-1-inside-1_1_1063)"/>
<g clip-path="url(#clip0_1_1063)">
<g clip-path="url(#clip1_1_1063)">
<g clip-path="url(#clip2_1_1063)">
<path d="M70.5963 46.3762C64.7552 46.3762 60.2352 50.7571 60.2352 56.6678C60.2352 62.5785 64.6856 66.9594 70.5963 66.9594C76.507 66.9594 81.027 62.509 81.027 56.6678C81.027 50.8266 76.5766 46.3762 70.5963 46.3762ZM70.6659 62.648C67.328 62.648 64.9637 60.0752 64.9637 56.5983C64.9637 53.1214 67.328 50.5485 70.6659 50.5485C74.0037 50.5485 76.4375 53.1214 76.4375 56.5983C76.4375 60.0752 73.9341 62.648 70.6659 62.648ZM82.2786 50.8266H85.1297V66.5422H89.7887V46.7239H82.2786V50.8266ZM48.6224 50.6181C51.0562 50.6181 53.0033 52.0783 53.6986 54.3035H58.5663C57.6623 49.575 53.7682 46.3067 48.6224 46.3067C42.8508 46.3762 38.3308 50.7571 38.3308 56.6678C38.3308 62.5785 42.7812 66.9594 48.6919 66.9594C53.6986 66.9594 57.6623 63.7607 58.5663 58.9626H53.6986C53.0033 61.1877 51.0562 62.7176 48.6919 62.7176C45.3541 62.7176 42.9898 60.1447 42.9898 56.6678C42.9898 53.1909 45.2846 50.6181 48.6224 50.6181ZM169.966 54.7207L166.559 54.234C164.959 54.0254 163.777 53.4691 163.777 52.2174C163.777 50.8266 165.307 50.1313 167.323 50.1313C169.549 50.1313 171.008 51.1048 171.287 52.6346H175.737C175.25 48.671 172.191 46.3067 167.462 46.3067C162.595 46.3067 159.326 48.81 159.326 52.3564C159.326 55.6943 161.413 57.7109 165.724 58.2672L169.131 58.7539C170.801 58.9626 171.704 59.6579 171.704 60.8401C171.704 62.4395 170.105 63.0653 167.88 63.0653C165.167 63.0653 163.638 61.9527 163.36 60.2838H158.84C159.257 64.1779 162.317 66.8899 167.81 66.8899C172.817 66.8899 176.224 64.5951 176.224 60.6315C176.224 57.1546 173.79 55.3466 169.966 54.7207ZM87.494 38.588C85.8251 38.588 84.5039 39.8397 84.5039 41.5086C84.5039 43.1775 85.7555 44.4292 87.494 44.4292C89.1629 44.4292 90.4841 43.1775 90.4841 41.5086C90.4841 39.8397 89.1629 38.588 87.494 38.588ZM155.224 53.5386C155.224 49.2273 152.582 46.3762 147.088 46.3762C141.873 46.3762 138.952 49.0187 138.326 53.0519H142.916C143.124 51.4525 144.376 50.2008 147.018 50.2008C149.383 50.2008 150.495 51.2439 150.495 52.4956C150.495 54.1645 148.409 54.5817 145.767 54.8598C142.22 55.277 137.839 56.4592 137.839 61.0487C137.839 64.5951 140.481 66.8899 144.723 66.8899C148.062 66.8899 150.078 65.4991 151.121 63.3435C151.26 65.2905 152.72 66.5422 154.806 66.5422H157.519V62.4395H155.224V53.5386ZM150.634 58.4758C150.634 61.1182 148.34 63.0653 145.489 63.0653C143.75 63.0653 142.29 62.3699 142.29 60.7705C142.29 58.8235 144.654 58.2672 146.81 58.0586C148.896 57.8499 150.009 57.4328 150.634 56.5288V58.4758ZM126.157 46.3762C123.584 46.3762 121.429 47.4193 119.899 49.2273V38.3794H115.309V66.5422H119.829V63.9693C121.359 65.8468 123.584 66.9594 126.157 66.9594C131.72 66.9594 135.892 62.5785 135.892 56.6678C135.892 50.7571 131.65 46.3762 126.157 46.3762ZM125.462 62.648C122.124 62.648 119.76 60.0752 119.76 56.5983C119.76 53.1214 122.193 50.5485 125.531 50.5485C128.869 50.5485 131.233 53.1214 131.233 56.5983C131.233 60.1447 128.799 62.648 125.462 62.648ZM104.253 46.3762C101.262 46.3762 99.3154 47.6279 98.1332 49.2968V46.7239H93.5438V66.5422H98.1332V55.7638C98.1332 52.7042 100.08 50.6181 102.931 50.6181C105.574 50.6181 107.243 52.4956 107.243 55.2075V66.5422H111.832V54.8598C111.832 49.8531 109.259 46.3762 104.253 46.3762ZM198.198 56.042C198.198 50.3399 194.026 46.3762 188.463 46.3762C182.552 46.3762 178.171 50.8266 178.171 56.6678C178.171 62.8567 182.83 66.9594 188.532 66.9594C193.33 66.9594 197.086 64.1083 198.059 60.0752H193.261C192.566 61.8136 190.897 62.8567 188.602 62.8567C185.611 62.8567 183.386 61.0487 182.9 57.7804H198.198V56.042ZM183.178 54.5122C183.943 51.7306 185.959 50.4094 188.393 50.4094C191.036 50.4094 192.983 51.8697 193.469 54.5122H183.178Z" fill="#0052FF"/>
</g>
</g>
</g>
</g>
<defs>
<filter id="filter0_d_1_1063" x="0.509766" y="0.679688" width="235.69" height="110" filterUnits="userSpaceOnUse" color-interpolation-filters="sRGB">
<feFlood flood-opacity="0" result="BackgroundImageFix"/>
<feColorMatrix in="SourceAlpha" type="matrix" values="0 0 0 0 0 0 0 0 0 0 0 0 0 0 0 0 0 0 127 0" result="hardAlpha"/>
<feMorphology radius="1" operator="erode" in="SourceAlpha" result="effect1_dropShadow_1_1063"/>
<feOffset dy="3"/>
<feGaussianBlur stdDeviation="4"/>
<feComposite in2="hardAlpha" operator="out"/>
<feColorMatrix type="matrix" values="0 0 0 0 0 0 0 0 0 0 0 0 0 0 0 0 0 0 0.08 0"/>
<feBlend mode="normal" in2="BackgroundImageFix" result="effect1_dropShadow_1_1063"/>
<feBlend mode="normal" in="SourceGraphic" in2="effect1_dropShadow_1_1063" result="shape"/>
</filter>
<clipPath id="clip0_1_1063">
<rect width="160.09" height="28.58" fill="white" transform="translate(38.3098 38.3794)"/>
</clipPath>
<clipPath id="clip1_1_1063">
<rect width="160.09" height="28.58" fill="white" transform="translate(38.3098 38.3794)"/>
</clipPath>
<clipPath id="clip2_1_1063">
<rect width="160.048" height="28.58" fill="white" transform="translate(38.3308 38.3794)"/>
</clipPath>
</defs>
</svg>
