<svg width="54" height="47" viewBox="0 0 54 47" fill="none" xmlns="http://www.w3.org/2000/svg">
<g opacity="0.8" filter="url(#filter0_b_247_1054)">
<rect x="2.47852" y="2" width="49.5425" height="42.71" rx="4" fill="url(#paint0_linear_247_1054)" fill-opacity="0.1"/>
<rect x="1.72852" y="1.25" width="51.0425" height="44.21" rx="4.75" stroke="url(#paint1_linear_247_1054)" stroke-width="1.5"/>
</g>
<g clip-path="url(#clip0_247_1054)">
<path d="M40.074 14.9233C37.7984 14.0231 35.3581 13.36 32.8066 12.9801C32.7601 12.9728 32.7137 12.9911 32.6898 13.0277C32.3759 13.509 32.0283 14.1367 31.7849 14.6302C29.0406 14.276 26.3104 14.276 23.6224 14.6302C23.3789 14.1258 23.0186 13.509 22.7034 13.0277C22.6795 12.9923 22.633 12.974 22.5866 12.9801C20.0365 13.3587 17.5962 14.0219 15.3192 14.9233C15.2995 14.9306 15.2826 14.9429 15.2713 14.9587C10.6426 20.9202 9.37463 26.7352 9.99667 32.4781C9.99948 32.5062 10.0178 32.5331 10.0431 32.5501C13.097 34.4836 16.0552 35.6573 18.9585 36.4353C19.005 36.4475 19.0542 36.4329 19.0838 36.3999C19.7705 35.5914 20.3827 34.7389 20.9076 33.8423C20.9386 33.7898 20.909 33.7275 20.8457 33.7068C19.8747 33.3892 18.9501 33.0021 18.0606 32.5624C17.9903 32.527 17.9846 32.4402 18.0494 32.3987C18.2365 32.2778 18.4237 32.152 18.6025 32.0249C18.6348 32.0017 18.6799 31.9968 18.7179 32.0115C24.5611 34.3114 30.887 34.3114 36.6612 32.0115C36.6992 31.9956 36.7443 32.0005 36.778 32.0237C36.9568 32.1507 37.144 32.2778 37.3326 32.3987C37.3973 32.4402 37.393 32.527 37.3227 32.5624C36.4333 33.0106 35.5086 33.3892 34.5362 33.7056C34.4729 33.7263 34.4447 33.7898 34.4757 33.8423C35.0118 34.7376 35.624 35.5901 36.2981 36.3987C36.3263 36.4329 36.3769 36.4475 36.4234 36.4353C39.3408 35.6573 42.299 34.4836 45.3529 32.5501C45.3796 32.5331 45.3965 32.5074 45.3993 32.4793C46.1438 25.8399 44.1524 20.0726 40.1204 14.9599C40.1106 14.9429 40.0937 14.9306 40.074 14.9233ZM21.7802 28.9813C20.021 28.9813 18.5715 27.5889 18.5715 25.879C18.5715 24.1691 19.9929 22.7767 21.7802 22.7767C23.5816 22.7767 25.0171 24.1813 24.9889 25.879C24.9889 27.5889 23.5675 28.9813 21.7802 28.9813ZM33.6439 28.9813C31.8848 28.9813 30.4353 27.5889 30.4353 25.879C30.4353 24.1691 31.8566 22.7767 33.6439 22.7767C35.4453 22.7767 36.8808 24.1813 36.8527 25.879C36.8527 27.5889 35.4453 28.9813 33.6439 28.9813Z" fill="white"/>
</g>
<defs>
<filter id="filter0_b_247_1054" x="-49.0215" y="-49.5" width="152.542" height="145.71" filterUnits="userSpaceOnUse" color-interpolation-filters="sRGB">
<feFlood flood-opacity="0" result="BackgroundImageFix"/>
<feGaussianBlur in="BackgroundImageFix" stdDeviation="25"/>
<feComposite in2="SourceAlpha" operator="in" result="effect1_backgroundBlur_247_1054"/>
<feBlend mode="normal" in="SourceGraphic" in2="effect1_backgroundBlur_247_1054" result="shape"/>
</filter>
<linearGradient id="paint0_linear_247_1054" x1="1.72461" y1="34.907" x2="54.1751" y2="34.907" gradientUnits="userSpaceOnUse">
<stop stop-color="white"/>
<stop offset="1" stop-color="white" stop-opacity="0.24"/>
</linearGradient>
<linearGradient id="paint1_linear_247_1054" x1="2.47852" y1="2" x2="35.6065" y2="58.4761" gradientUnits="userSpaceOnUse">
<stop stop-color="white" stop-opacity="0.28"/>
<stop offset="1" stop-color="white" stop-opacity="0"/>
</linearGradient>
<clipPath id="clip0_247_1054">
<rect width="36.0309" height="31.0618" fill="white" transform="translate(9.68555 8.21191)"/>
</clipPath>
</defs>
</svg>
