<svg width="54" height="47" viewBox="0 0 54 47" fill="none" xmlns="http://www.w3.org/2000/svg">
<g opacity="0.8" filter="url(#filter0_b_247_1060)">
<rect x="2.40332" y="2" width="49.5425" height="42.71" rx="4" fill="url(#paint0_linear_247_1060)" fill-opacity="0.1"/>
<rect x="1.65332" y="1.25" width="51.0425" height="44.21" rx="4.75" stroke="url(#paint1_linear_247_1060)" stroke-width="1.5"/>
</g>
<g clip-path="url(#clip0_247_1060)">
<path d="M35.4191 19.4243C37.7361 20.8573 40.5745 21.7004 43.6402 21.7004V16.5966C43.06 16.5967 42.4813 16.5443 41.9137 16.4403V20.4577C38.8483 20.4577 36.0102 19.6146 33.6926 18.1818V28.5971C33.6926 33.8074 28.8105 38.0309 22.7885 38.0309C20.5416 38.0309 18.4531 37.4432 16.7183 36.4353C18.6983 38.1869 21.4597 39.2735 24.5146 39.2735C30.537 39.2735 35.4193 35.05 35.4193 29.8395V19.4243H35.4191ZM37.5489 14.2752C36.3648 13.156 35.5873 11.7096 35.4191 10.1106V9.4541H33.783C34.1948 11.4865 35.5995 13.2228 37.5489 14.2752ZM20.5272 32.4371C19.8656 31.6866 19.5081 30.7685 19.5097 29.8246C19.5097 27.4416 21.7427 25.5094 24.4976 25.5094C25.0111 25.5093 25.5214 25.5773 26.0107 25.7116V20.4937C25.4389 20.4259 24.8618 20.3972 24.285 20.4077V24.4691C23.7953 24.3347 23.2847 24.2665 22.7712 24.2669C20.0162 24.2669 17.7833 26.1989 17.7833 28.5822C17.7833 30.2674 18.8994 31.7263 20.5272 32.4371Z" fill="white"/>
<path d="M33.6929 18.1816C36.0106 19.6145 38.8486 20.4576 41.9141 20.4576V16.4402C40.203 16.1249 38.6882 15.3512 37.5492 14.2752C35.5997 13.2227 34.1951 11.4864 33.7833 9.4541H29.4857V29.8393C29.476 32.2158 27.2468 34.14 24.4978 34.14C22.8778 34.14 21.4386 33.472 20.5272 32.4371C18.8996 31.7263 17.7834 30.2673 17.7834 28.5823C17.7834 26.1992 20.0163 24.267 22.7713 24.267C23.2991 24.267 23.8079 24.3382 24.2851 24.4692V20.4078C18.3689 20.5136 13.6108 24.6958 13.6108 29.8394C13.6108 32.407 14.7957 34.7347 16.7188 36.4354C18.4536 37.4432 20.5421 38.031 22.789 38.031C28.8111 38.031 33.693 33.8073 33.693 28.5971V18.1816H33.6929Z" fill="white"/>
<path d="M41.9139 16.4405V15.3542C40.3709 15.3562 38.8582 14.9823 37.549 14.2754C38.7079 15.373 40.2339 16.1299 41.9139 16.4405ZM33.7831 9.45437C33.7438 9.26014 33.7137 9.06463 33.6927 8.86837V8.21191H27.7589V28.5973C27.7494 30.9735 25.5204 32.8977 22.7711 32.8977C21.9639 32.8977 21.2018 32.732 20.527 32.4374C21.4384 33.4722 22.8776 34.1402 24.4976 34.1402C27.2464 34.1402 29.4759 32.2161 29.4855 29.8396V9.45437H33.7831ZM24.2851 20.4081V19.2517C23.7893 19.193 23.2894 19.1636 22.7889 19.1638C16.7663 19.1637 11.8843 23.3874 11.8843 28.5973C11.8843 31.8636 13.803 34.7422 16.7187 36.4355C14.7956 34.7348 13.6108 32.407 13.6108 29.8395C13.6108 24.6961 18.3687 20.5138 24.2851 20.4081Z" fill="white"/>
</g>
<defs>
<filter id="filter0_b_247_1060" x="-49.0967" y="-49.5" width="152.542" height="145.71" filterUnits="userSpaceOnUse" color-interpolation-filters="sRGB">
<feFlood flood-opacity="0" result="BackgroundImageFix"/>
<feGaussianBlur in="BackgroundImageFix" stdDeviation="25"/>
<feComposite in2="SourceAlpha" operator="in" result="effect1_backgroundBlur_247_1060"/>
<feBlend mode="normal" in="SourceGraphic" in2="effect1_backgroundBlur_247_1060" result="shape"/>
</filter>
<linearGradient id="paint0_linear_247_1060" x1="1.64941" y1="34.907" x2="54.0999" y2="34.907" gradientUnits="userSpaceOnUse">
<stop stop-color="white"/>
<stop offset="1" stop-color="white" stop-opacity="0.24"/>
</linearGradient>
<linearGradient id="paint1_linear_247_1060" x1="2.40332" y1="2" x2="35.5313" y2="58.4761" gradientUnits="userSpaceOnUse">
<stop stop-color="white" stop-opacity="0.28"/>
<stop offset="1" stop-color="white" stop-opacity="0"/>
</linearGradient>
<clipPath id="clip0_247_1060">
<rect width="36.0309" height="31.0618" fill="white" transform="translate(9.60938 8.21191)"/>
</clipPath>
</defs>
</svg>
