<svg width="65" height="64" viewBox="0 0 65 64" fill="none" xmlns="http://www.w3.org/2000/svg">
<rect x="0.549988" width="64" height="64" rx="16" fill="#D3A605"/>
<path d="M23.55 18H41.55C41.8208 18 42.076 18.0521 42.3156 18.1562C42.5552 18.2604 42.7687 18.4062 42.9562 18.5938C43.1437 18.7812 43.2896 18.9948 43.3937 19.2344C43.4979 19.474 43.55 19.7292 43.55 20V45C43.55 45.125 43.5239 45.25 43.4719 45.375C43.4198 45.5 43.3521 45.6146 43.2687 45.7188C43.1646 45.8021 43.05 45.8698 42.925 45.9219C42.8 45.974 42.675 46 42.55 46H41.55C41.4667 46 41.3885 45.9896 41.3156 45.9688C41.2427 45.9479 41.175 45.9271 41.1125 45.9062C41.0292 45.8646 40.9614 45.8177 40.9094 45.7656C40.8573 45.7135 40.8 45.6562 40.7375 45.5938L38.55 42.6562L36.3625 45.5938C36.3 45.6562 36.2375 45.7135 36.175 45.7656C36.1125 45.8177 36.05 45.8542 35.9875 45.875C35.925 45.9167 35.8573 45.9427 35.7844 45.9531C35.7114 45.9635 35.6333 45.9688 35.55 45.9688C35.4667 45.9688 35.3885 45.9635 35.3156 45.9531C35.2427 45.9427 35.175 45.9167 35.1125 45.875C35.05 45.8542 34.9875 45.8177 34.925 45.7656C34.8625 45.7135 34.8 45.6562 34.7375 45.5938L32.55 42.6562L30.3625 45.5938C30.3 45.6562 30.2375 45.7135 30.175 45.7656C30.1125 45.8177 30.05 45.8542 29.9875 45.875C29.925 45.9167 29.8573 45.9427 29.7844 45.9531C29.7114 45.9635 29.6333 45.9688 29.55 45.9688C29.4667 45.9688 29.3885 45.9635 29.3156 45.9531C29.2427 45.9427 29.175 45.9167 29.1125 45.875C29.05 45.8542 28.9875 45.8177 28.925 45.7656C28.8625 45.7135 28.8 45.6562 28.7375 45.5938L26.55 42.6562L24.3625 45.5938C24.3 45.6562 24.2427 45.7135 24.1906 45.7656C24.1385 45.8177 24.0708 45.8646 23.9875 45.9062C23.925 45.9271 23.8573 45.9479 23.7844 45.9688C23.7114 45.9896 23.6333 46 23.55 46H22.55C22.425 46 22.3 45.974 22.175 45.9219C22.05 45.8698 21.9354 45.8021 21.8312 45.7188C21.7479 45.6146 21.6802 45.5 21.6281 45.375C21.576 45.25 21.55 45.125 21.55 45V20C21.55 19.7292 21.6021 19.474 21.7062 19.2344C21.8104 18.9948 21.9562 18.7812 22.1437 18.5938C22.3312 18.4062 22.5448 18.2604 22.7844 18.1562C23.0239 18.0521 23.2792 18 23.55 18ZM39.3625 40.4062L41.55 43.3438V20H23.55V43.3438L25.7375 40.4062C25.8 40.3438 25.8625 40.2865 25.925 40.2344C25.9875 40.1823 26.05 40.1458 26.1125 40.125C26.175 40.0833 26.2427 40.0573 26.3156 40.0469C26.3885 40.0365 26.4667 40.0312 26.55 40.0312C26.6333 40.0312 26.7114 40.0365 26.7844 40.0469C26.8573 40.0573 26.925 40.0833 26.9875 40.125C27.05 40.1458 27.1125 40.1823 27.175 40.2344C27.2375 40.2865 27.3 40.3438 27.3625 40.4062L29.55 43.3438L31.7375 40.4062C31.8 40.3438 31.8625 40.2865 31.925 40.2344C31.9875 40.1823 32.05 40.1458 32.1125 40.125C32.175 40.0833 32.2427 40.0573 32.3156 40.0469C32.3885 40.0365 32.4667 40.0312 32.55 40.0312C32.6333 40.0312 32.7114 40.0365 32.7844 40.0469C32.8573 40.0573 32.925 40.0833 32.9875 40.125C33.05 40.1458 33.1125 40.1823 33.175 40.2344C33.2375 40.2865 33.3 40.3438 33.3625 40.4062L35.55 43.3438L37.7375 40.4062C37.8 40.3438 37.8625 40.2865 37.925 40.2344C37.9875 40.1823 38.05 40.1458 38.1125 40.125C38.175 40.0833 38.2427 40.0573 38.3156 40.0469C38.3885 40.0365 38.4667 40.0312 38.55 40.0312C38.6333 40.0312 38.7114 40.0365 38.7844 40.0469C38.8573 40.0573 38.925 40.0833 38.9875 40.125C39.05 40.1458 39.1125 40.1823 39.175 40.2344C39.2375 40.2865 39.3 40.3438 39.3625 40.4062ZM39.55 24H25.55V26H39.55V24ZM39.55 28H37.55V30H39.55V28ZM25.55 32H33.55V34H25.55V32ZM37.55 32H39.55V34H37.55V32ZM25.55 28H33.55V30H25.55V28Z" fill="white"/>
</svg>
