<svg width="65" height="64" viewBox="0 0 65 64" fill="none" xmlns="http://www.w3.org/2000/svg">
<rect x="0.300049" width="64" height="64" rx="16" fill="#D3A605"/>
<path d="M20.3 36H24.3V38H20.3C20.0292 38 19.774 37.9479 19.5344 37.8438C19.2948 37.7396 19.0813 37.5938 18.8938 37.4062C18.7063 37.2188 18.5605 37.0052 18.4563 36.7656C18.3521 36.526 18.3 36.2708 18.3 36V20C18.3 19.7292 18.3521 19.474 18.4563 19.2344C18.5605 18.9948 18.7063 18.7812 18.8938 18.5938C19.0813 18.4062 19.2948 18.2604 19.5344 18.1562C19.774 18.0521 20.0292 18 20.3 18H36.3C36.5709 18 36.8261 18.0521 37.0657 18.1562C37.3053 18.2604 37.5188 18.4062 37.7063 18.5938C37.8938 18.7812 38.0396 18.9948 38.1438 19.2344C38.248 19.474 38.3 19.7292 38.3 20V24H36.3V20H20.3V36ZM29.3 33V26H32.3V24H24.3V26H27.3V33H29.3ZM45.8313 29.75L42.55 26.4688C42.4042 26.3229 42.2323 26.2083 42.0344 26.125C41.8365 26.0417 41.6334 26 41.425 26C41.2167 26 41.0136 26.0417 40.8157 26.125C40.6178 26.2083 40.4459 26.3229 40.3 26.4688L26.3 40.4688V46H31.8313L45.8313 32C45.9771 31.8542 46.0917 31.6823 46.175 31.4844C46.2584 31.2865 46.3 31.0833 46.3 30.875C46.3 30.6667 46.2584 30.4635 46.175 30.2656C46.0917 30.0677 45.9771 29.8958 45.8313 29.75ZM31.0188 44H28.3V41.2812L37.7375 31.8438L40.4563 34.5625L31.0188 44ZM41.8625 33.1562L39.1438 30.4375L41.425 28.1875L44.1125 30.875L41.8625 33.1562Z" fill="white"/>
</svg>
