<svg width="65" height="64" viewBox="0 0 65 64" fill="none" xmlns="http://www.w3.org/2000/svg">
<rect x="0.549988" width="64" height="64" rx="16" fill="#D3A605"/>
<path d="M43.5187 29H45.55C45.675 29 45.8 29.026 45.925 29.0781C46.05 29.1302 46.1646 29.1979 46.2687 29.2812C46.3521 29.3854 46.4198 29.5 46.4719 29.625C46.5239 29.75 46.55 29.875 46.55 30V35C46.55 35.125 46.5239 35.25 46.4719 35.375C46.4198 35.5 46.3521 35.6146 46.2687 35.7188C46.1646 35.8021 46.05 35.8698 45.925 35.9219C45.8 35.974 45.675 36 45.55 36H43.3625C43.3 36.3958 43.1854 36.776 43.0187 37.1406C42.8521 37.5052 42.6437 37.8438 42.3937 38.1562C42.1437 38.4688 41.8625 38.75 41.55 39C41.2375 39.25 40.9042 39.4583 40.55 39.625V43C40.55 43.125 40.5239 43.25 40.4719 43.375C40.4198 43.5 40.3521 43.6146 40.2687 43.7188C40.1646 43.8021 40.05 43.8698 39.925 43.9219C39.8 43.974 39.675 44 39.55 44H35.55C35.425 44 35.3 43.974 35.175 43.9219C35.05 43.8698 34.9354 43.8021 34.8312 43.7188C34.7479 43.6146 34.6802 43.5 34.6281 43.375C34.576 43.25 34.55 43.125 34.55 43V41H31.55V43C31.55 43.125 31.5239 43.25 31.4719 43.375C31.4198 43.5 31.3521 43.6146 31.2687 43.7188C31.1646 43.8021 31.05 43.8698 30.925 43.9219C30.8 43.974 30.675 44 30.55 44H26.55C26.425 44 26.3 43.974 26.175 43.9219C26.05 43.8698 25.9354 43.8021 25.8312 43.7188C25.7479 43.6146 25.6802 43.5 25.6281 43.375C25.576 43.25 25.55 43.125 25.55 43V39.5625C25.0083 39.1875 24.5135 38.7604 24.0656 38.2812C23.6177 37.8021 23.2167 37.2812 22.8625 36.7188C22.5292 36.1354 22.2583 35.5312 22.05 34.9062C21.8417 34.2812 21.6958 33.6458 21.6125 33H21.55C21.1542 33 20.7739 32.9219 20.4094 32.7656C20.0448 32.6094 19.7167 32.3958 19.425 32.125C19.1542 31.8333 18.9406 31.5052 18.7844 31.1406C18.6281 30.776 18.55 30.3958 18.55 30V28H20.55V30C20.55 30.125 20.576 30.25 20.6281 30.375C20.6802 30.5 20.7479 30.6146 20.8312 30.7188C20.9354 30.8021 21.05 30.8698 21.175 30.9219C21.3 30.974 21.425 31 21.55 31H21.6125C21.7167 29.8125 22.0396 28.7292 22.5812 27.75C23.1229 26.7708 23.826 25.9271 24.6906 25.2188C25.5552 24.5104 26.5708 23.9688 27.7375 23.5938C28.9042 23.1979 30.175 23 31.55 23H36.2062L39.9562 20.1875C40.0187 20.1458 40.0969 20.1094 40.1906 20.0781C40.2844 20.0469 40.3729 20.0208 40.4562 20C40.5604 20 40.6542 20.0052 40.7375 20.0156C40.8208 20.026 40.9042 20.0521 40.9875 20.0938C41.0708 20.1354 41.1489 20.1875 41.2219 20.25C41.2948 20.3125 41.3521 20.3854 41.3937 20.4688C41.4562 20.5521 41.4979 20.6406 41.5187 20.7344C41.5396 20.8281 41.55 20.9167 41.55 21V24.8438C41.8417 25.1146 42.1073 25.4062 42.3469 25.7188C42.5864 26.0312 42.7896 26.3646 42.9562 26.7188C43.1437 27.0729 43.2844 27.4427 43.3781 27.8281C43.4719 28.2135 43.5187 28.6042 43.5187 29ZM41.675 34H44.55V31H41.5812C41.5604 30.8333 41.55 30.6667 41.55 30.5C41.55 30.3333 41.55 30.1667 41.55 30C41.55 29.25 41.4667 28.5521 41.3 27.9062C41.1333 27.2604 40.55 26.5521 39.55 25.7812V23L36.8937 25H31.55C30.55 25 29.5708 25.1354 28.6125 25.4062C27.6542 25.6771 26.8 26.099 26.05 26.6719C25.3 27.2448 24.6958 27.9792 24.2375 28.875C23.7792 29.75 23.55 30.7917 23.55 32C23.55 32.6667 23.6385 33.3229 23.8156 33.9688C23.9927 34.6146 24.2583 35.2188 24.6125 35.7812C24.9667 36.3438 25.3937 36.8438 25.8937 37.2812C26.3937 37.7188 26.9458 38.0833 27.55 38.375V42H29.55V39H36.55V42H38.55V38.3125C39.6958 37.8958 40.4667 37.4167 40.8625 36.875C41.2583 36.3333 41.5292 35.375 41.675 34ZM36.55 30H33.05C32.9875 30 32.925 30.0104 32.8625 30.0312C32.8 30.0521 32.7479 30.0938 32.7062 30.1562C32.6437 30.1979 32.6021 30.25 32.5812 30.3125C32.5604 30.375 32.55 30.4375 32.55 30.5C32.55 30.5625 32.5604 30.625 32.5812 30.6875C32.6021 30.75 32.6437 30.8021 32.7062 30.8438C32.7479 30.9062 32.8 30.9479 32.8625 30.9688C32.925 30.9896 32.9875 31 33.05 31H34.05C34.3625 31 34.6646 31.0573 34.9562 31.1719C35.2479 31.2865 35.5083 31.4479 35.7375 31.6562C35.9667 31.8646 36.1489 32.1042 36.2844 32.375C36.4198 32.6458 36.5083 32.9375 36.55 33.25C36.5708 33.5625 36.5396 33.8646 36.4562 34.1562C36.3729 34.4479 36.2375 34.7188 36.05 34.9688C35.8833 35.2188 35.6698 35.4271 35.4094 35.5938C35.1489 35.7604 34.8625 35.875 34.55 35.9375V37H32.55V36H30.55V34H34.05C34.1125 34 34.175 33.9896 34.2375 33.9688C34.3 33.9479 34.3521 33.9062 34.3937 33.8438C34.4562 33.8021 34.4979 33.75 34.5187 33.6875C34.5396 33.625 34.55 33.5625 34.55 33.5C34.55 33.4375 34.5396 33.375 34.5187 33.3125C34.4979 33.25 34.4562 33.1979 34.3937 33.1562C34.3521 33.0938 34.3 33.0521 34.2375 33.0312C34.175 33.0104 34.1125 33 34.05 33H33.05C32.7375 33 32.4354 32.9427 32.1437 32.8281C31.8521 32.7135 31.5917 32.5521 31.3625 32.3438C31.1333 32.1354 30.951 31.8958 30.8156 31.625C30.6802 31.3542 30.5917 31.0625 30.55 30.75C30.5292 30.4375 30.5604 30.1354 30.6437 29.8438C30.7271 29.5521 30.8625 29.2812 31.05 29.0312C31.2167 28.7812 31.4302 28.5729 31.6906 28.4062C31.951 28.2396 32.2375 28.125 32.55 28.0625V27H34.55V28H36.55V30Z" fill="white"/>
</svg>
