<svg width="65" height="64" viewBox="0 0 65 64" fill="none" xmlns="http://www.w3.org/2000/svg">
<rect x="0.300049" width="64" height="64" rx="16" fill="#D3A605"/>
<path d="M20.3 24H44.3C44.5709 24 44.8261 24.0521 45.0657 24.1562C45.3053 24.2604 45.5188 24.4062 45.7063 24.5938C45.8938 24.7812 46.0396 24.9948 46.1438 25.2344C46.248 25.474 46.3 25.7292 46.3 26V42C46.3 42.2708 46.248 42.526 46.1438 42.7656C46.0396 43.0052 45.8938 43.2188 45.7063 43.4062C45.5188 43.5938 45.3053 43.7396 45.0657 43.8438C44.8261 43.9479 44.5709 44 44.3 44H20.3C20.0292 44 19.774 43.9479 19.5344 43.8438C19.2948 43.7396 19.0813 43.5938 18.8938 43.4062C18.7063 43.2188 18.5605 43.0052 18.4563 42.7656C18.3521 42.526 18.3 42.2708 18.3 42V21C18.3 20.7292 18.3521 20.474 18.4563 20.2344C18.5605 19.9948 18.7063 19.7812 18.8938 19.5938C19.0813 19.4062 19.2948 19.2604 19.5344 19.1562C19.774 19.0521 20.0292 19 20.3 19H42.3V21H20.3V24ZM20.3 26V42H44.3V39H36.3C36.0292 39 35.774 38.9479 35.5344 38.8438C35.2948 38.7396 35.0813 38.5938 34.8938 38.4062C34.7063 38.2188 34.5605 38.0052 34.4563 37.7656C34.3521 37.526 34.3 37.2708 34.3 37V31C34.3 30.7292 34.3521 30.474 34.4563 30.2344C34.5605 29.9948 34.7063 29.7812 34.8938 29.5938C35.0813 29.4062 35.2948 29.2604 35.5344 29.1562C35.774 29.0521 36.0292 29 36.3 29H44.3V26H20.3ZM44.3 37V31H36.3V37H44.3ZM38.3 33H40.3V35H38.3V33Z" fill="white"/>
</svg>
