<svg width="257" height="111" viewBox="0 0 257 111" fill="none" xmlns="http://www.w3.org/2000/svg">
<g filter="url(#filter0_d_1_1053)">
<mask id="path-1-inside-1_1_1053" fill="white">
<path d="M7 28.6797C7 15.4249 17.7452 4.67969 31 4.67969H225.42C238.675 4.67969 249.42 15.4249 249.42 28.6797V76.6797C249.42 89.9345 238.675 100.68 225.42 100.68H31C17.7452 100.68 7 89.9345 7 76.6797V28.6797Z"/>
</mask>
<path d="M7 28.6797C7 15.4249 17.7452 4.67969 31 4.67969H225.42C238.675 4.67969 249.42 15.4249 249.42 28.6797V76.6797C249.42 89.9345 238.675 100.68 225.42 100.68H31C17.7452 100.68 7 89.9345 7 76.6797V28.6797Z" fill="white" fill-opacity="0.01" shape-rendering="crispEdges"/>
<path d="M31 5.67969H225.42V3.67969H31V5.67969ZM248.42 28.6797V76.6797H250.42V28.6797H248.42ZM225.42 99.6797H31V101.68H225.42V99.6797ZM8 76.6797V28.6797H6V76.6797H8ZM31 99.6797C18.2975 99.6797 8 89.3822 8 76.6797H6C6 90.4868 17.1929 101.68 31 101.68V99.6797ZM248.42 76.6797C248.42 89.3822 238.123 99.6797 225.42 99.6797V101.68C239.227 101.68 250.42 90.4868 250.42 76.6797H248.42ZM225.42 5.67969C238.123 5.67969 248.42 15.9771 248.42 28.6797H250.42C250.42 14.8726 239.227 3.67969 225.42 3.67969V5.67969ZM31 3.67969C17.1929 3.67969 6 14.8726 6 28.6797H8C8 15.9771 18.2975 5.67969 31 5.67969V3.67969Z" fill="#838383" fill-opacity="0.25" mask="url(#path-1-inside-1_1_1053)"/>
<g clip-path="url(#clip0_1_1053)">
<g clip-path="url(#clip1_1_1053)">
<g clip-path="url(#clip2_1_1053)">
<path fill-rule="evenodd" clip-rule="evenodd" d="M39.1304 47.0257L37.9249 41.1081L39.7881 35.6289L51.5137 40.0124L61.1572 40.0123L72.7744 35.7096L72.8826 35.6289L72.8948 35.665L72.9923 35.6289L72.9046 35.6934L74.7455 41.1081L73.5401 47.0257L74.4168 47.5737L73.2113 48.4503L74.088 49.1078L72.8826 50.2037L73.6496 50.642L72.0057 52.6145L74.5261 60.3951H67.8413L65.5394 60.4512L67.7319 60.5047L63.9901 66.0638L64.0062 66.2032L59.5133 68.2851V66.9701L59.0748 63.7923L63.2591 60.5736L63.242 60.4228L63.2393 60.5047L59.0163 63.7532L59.0748 63.7923L59.4036 66.9702L59.0748 66.6415H53.5956L53.4118 66.8252L53.3943 66.9526L53.5959 66.7509H59.0752L59.4039 67.0796V68.3947L64.0062 66.2032L62.4723 67.518L59.1847 69.7097H53.5959L50.418 67.518L48.7736 66.2031L53.2672 68.3947V68.3425L48.7736 66.2031L49.4213 60.5941L49.4109 60.5736L48.7736 66.2031L40.5549 68.5044L38.2536 60.5047L44.9383 60.3951L45.0095 60.5029L47.1855 60.4499L44.9383 60.3951H38.2536L40.7485 52.6934L39.1304 50.7516L39.8974 50.2037L38.692 49.1078L39.5687 48.4503L38.3633 47.5737L39.1304 47.0257ZM46.0345 53.82L54.0276 54.1441L54.0334 54.2539L46.091 53.9319L46.0345 53.82ZM58.3075 56.8884V63.3362L58.5271 54.2589L59.2942 58.4221L59.3981 58.3917L59.422 58.3844L63.3489 57.2172L63.243 60.3952L63.352 60.3979L63.458 57.217L60.6092 55.9022L60.5894 55.9436L60.4995 55.902L59.3733 58.2569L58.6367 54.2584L66.635 53.9342L66.7456 53.8199L64.4486 50.4291L66.6364 53.9297L58.5271 54.2589L58.5261 54.2654L58.3075 56.8884ZM49.4279 60.5045L49.4313 60.5046L49.4288 60.5298L49.4279 60.5045ZM49.4286 60.4172L49.4313 60.5046L49.4277 60.4977L49.4258 60.4419L49.4286 60.4172ZM46.1511 54.0501L46.1471 54.0423L49.322 57.2172L49.4279 60.3951L49.4243 60.3953L49.322 57.3268L46.1511 54.0501ZM49.322 57.2172L52.1712 55.902L53.3766 58.4225L49.322 57.2172ZM59.1881 45.7729L65.6738 41.0069L59.2326 45.8122L59.1881 45.7729ZM53.7052 63.7923L48.7761 66.2021L53.6817 63.9626L53.7052 63.7923Z" fill="#F5841F"/>
<path d="M64.0061 66.2032L67.8412 60.395L74.5258 60.5046L72.2246 68.5043L64.0061 66.2032Z" fill="#F5841F"/>
<path d="M94.2263 44.2863H91.9251C91.9251 44.2863 91.8155 44.2863 91.8155 44.3959L89.843 50.8614C89.843 50.971 89.7334 50.971 89.6238 50.8614L87.6513 44.3959C87.6513 44.3959 87.6513 44.2863 87.5417 44.2863H84.1446C84.1446 44.2863 84.035 44.2863 84.035 44.3959V60.8336C84.035 60.8336 84.035 60.9432 84.1446 60.9432H86.5554C86.5554 60.9432 86.6651 60.9432 86.6651 60.8336V48.2314C86.6651 48.1218 86.7746 48.1218 86.8842 48.2314L88.8568 54.6969L88.9663 55.1353C88.9663 55.1353 88.9663 55.2448 89.0759 55.2448H90.9388C90.9388 55.2448 91.0485 55.2448 91.0485 55.1353L91.158 54.6969L93.1305 48.2314C93.1305 48.1218 93.3497 48.1218 93.3497 48.2314V60.724C93.3497 60.724 93.3497 60.8336 93.4593 60.8336H95.8702C95.8702 60.8336 95.9797 60.8336 95.9797 60.724V44.2863C95.9797 44.2863 95.9797 44.1768 95.8702 44.1768H94.2263V44.2863Z" fill="white"/>
<path d="M104.217 58.3131V53.2723C104.217 53.2723 104.217 53.1627 104.326 53.1627H110.682C110.682 53.1627 110.792 53.1627 110.792 53.0531V50.971C110.792 50.971 110.792 50.8614 110.682 50.8614H104.326C104.326 50.8614 104.217 50.8614 104.217 50.7519V46.3685C104.217 46.3685 104.217 46.2588 104.326 46.2588H111.559C111.559 46.2588 111.669 46.2588 111.669 46.1493V44.2863C111.669 44.2863 111.669 44.1768 111.559 44.1768H101.806C101.806 44.1768 101.696 44.1768 101.696 44.2863V60.5048C101.696 60.5048 101.696 60.6145 101.806 60.6145H111.778C111.778 60.6145 111.888 60.6145 111.888 60.5048V58.3131C111.888 58.3131 111.888 58.2036 111.778 58.2036L104.217 58.3131Z" fill="white"/>
<path d="M128.892 44.1768H117.714C117.714 44.1768 117.604 44.1768 117.604 44.2863V46.3685C117.604 46.3685 117.604 46.478 117.714 46.478H122.098V60.724C122.098 60.724 122.098 60.8336 122.207 60.8336H124.618C124.618 60.8336 124.727 60.8336 124.727 60.724V46.478H129.111C129.111 46.478 129.221 46.478 129.221 46.3685L128.892 44.1768Z" fill="white"/>
<path d="M145.019 60.8336H147.211C147.32 60.8336 147.32 60.724 147.32 60.724L142.827 44.2863C142.827 44.2863 142.827 44.1768 142.718 44.1768H139.54C139.54 44.1768 139.43 44.1768 139.43 44.2863L134.937 60.724C134.937 60.8336 134.937 60.8336 135.047 60.8336H137.238C137.238 60.8336 137.348 60.8336 137.348 60.724L138.663 55.9023C138.663 55.9023 138.663 55.7927 138.772 55.7927H143.594C143.594 55.7927 143.704 55.7927 143.704 55.9023L145.019 60.8336C144.909 60.8336 144.909 60.8336 145.019 60.8336ZM139.321 53.601L141.074 47.2451C141.074 47.1356 141.183 47.1356 141.293 47.2451L143.046 53.601C143.046 53.7106 143.046 53.7106 142.937 53.7106H139.43C139.321 53.7106 139.321 53.601 139.321 53.601Z" fill="white"/>
<path d="M161.037 44.2863C160.927 44.2863 160.927 44.2863 161.037 44.2863L158.954 50.7519C158.954 50.8614 158.845 50.8614 158.735 50.7519L156.763 44.2863C156.763 44.2863 156.763 44.1768 156.653 44.1768H153.146C153.146 44.1768 153.037 44.1768 153.037 44.2863V60.724C153.037 60.724 153.037 60.8336 153.146 60.8336H155.557C155.557 60.8336 155.667 60.8336 155.667 60.724V48.2314C155.667 48.1218 155.777 48.1218 155.886 48.2314L157.859 54.6969L157.968 55.1353C157.968 55.1353 157.968 55.2448 158.078 55.2448H159.94C159.94 55.2448 160.051 55.2448 160.051 55.1353L160.16 54.6969L162.132 48.2314C162.132 48.1218 162.351 48.1218 162.351 48.2314V60.724C162.351 60.724 162.351 60.8336 162.461 60.8336H164.872C164.872 60.8336 164.982 60.8336 164.982 60.724V44.2863C164.982 44.2863 164.982 44.1768 164.872 44.1768H161.037V44.2863Z" fill="white"/>
<path d="M180.78 60.8336H182.971C183.082 60.8336 183.081 60.724 183.081 60.724L178.588 44.2863C178.588 44.2863 178.588 44.1768 178.479 44.1768H175.301C175.301 44.1768 175.191 44.1768 175.191 44.2863L170.698 60.724C170.698 60.8336 170.698 60.8336 170.808 60.8336H172.999C172.999 60.8336 173.109 60.8336 173.109 60.724L174.424 55.9023C174.424 55.9023 174.424 55.7927 174.534 55.7927H179.356C179.356 55.7927 179.465 55.7927 179.465 55.9023L180.78 60.8336ZM175.191 53.601L176.945 47.2451C176.945 47.1356 177.054 47.1356 177.164 47.2451L178.917 53.601C178.917 53.7106 178.917 53.7106 178.808 53.7106H175.301C175.191 53.7106 175.191 53.601 175.191 53.601Z" fill="white"/>
<path d="M197.345 52.8339C196.359 52.1764 195.264 51.7381 194.277 51.1902C193.62 50.8614 192.962 50.5327 192.305 49.9847C191.319 49.2176 191.538 47.5739 192.524 46.9164C193.948 45.9301 196.359 46.478 196.688 48.4505C196.688 48.4505 196.688 48.5602 196.798 48.5602H198.99C199.099 48.5602 199.099 48.5602 199.099 48.4505C198.99 47.1356 198.442 45.9301 197.455 45.2726C196.579 44.6151 195.482 44.1768 194.387 44.1768C188.579 44.1768 188.031 50.3135 191.209 52.1764C191.538 52.3956 194.606 53.9298 195.702 54.5873C196.798 55.2448 197.127 56.4502 196.688 57.4365C196.25 58.3131 195.154 58.9707 194.058 58.8611C192.853 58.7515 191.867 58.094 191.538 57.1077C191.428 56.8886 191.428 56.5598 191.428 56.4502C191.428 56.4502 191.428 56.3407 191.319 56.3407H188.908C188.908 56.3407 188.798 56.3407 188.798 56.4502C188.798 58.2036 189.236 59.0803 190.442 59.957C191.538 60.8336 192.743 61.1624 193.948 61.1624C197.236 61.1624 198.88 59.2994 199.208 57.4365C199.537 55.5736 198.99 53.9298 197.345 52.8339Z" fill="white"/>
<path d="M218.057 60.6145L209.838 52.1764V52.0668L217.29 44.3959C217.399 44.2863 217.29 44.2863 217.18 44.2863H214.112C214.112 44.2863 214.112 44.2863 214.002 44.2863L207.756 50.7519C207.646 50.8614 207.646 50.7519 207.646 50.6422V44.2863C207.646 44.2863 207.646 44.1768 207.537 44.1768H205.126C205.126 44.1768 205.016 44.1768 205.016 44.2863V60.724C205.016 60.724 205.016 60.8336 205.126 60.8336H207.537C207.537 60.8336 207.646 60.8336 207.646 60.724V53.4914C207.646 53.3819 207.756 53.3819 207.756 53.3819L214.879 60.724C214.879 60.724 214.879 60.724 214.988 60.724H218.057C218.057 60.724 218.166 60.6145 218.057 60.6145Z" fill="white"/>
</g>
</g>
</g>
</g>
<defs>
<filter id="filter0_d_1_1053" x="0" y="0.679688" width="256.42" height="110" filterUnits="userSpaceOnUse" color-interpolation-filters="sRGB">
<feFlood flood-opacity="0" result="BackgroundImageFix"/>
<feColorMatrix in="SourceAlpha" type="matrix" values="0 0 0 0 0 0 0 0 0 0 0 0 0 0 0 0 0 0 127 0" result="hardAlpha"/>
<feMorphology radius="1" operator="erode" in="SourceAlpha" result="effect1_dropShadow_1_1053"/>
<feOffset dy="3"/>
<feGaussianBlur stdDeviation="4"/>
<feComposite in2="hardAlpha" operator="out"/>
<feColorMatrix type="matrix" values="0 0 0 0 0 0 0 0 0 0 0 0 0 0 0 0 0 0 0.08 0"/>
<feBlend mode="normal" in2="BackgroundImageFix" result="effect1_dropShadow_1_1053"/>
<feBlend mode="normal" in="SourceGraphic" in2="effect1_dropShadow_1_1053" result="shape"/>
</filter>
<clipPath id="clip0_1_1053">
<rect width="180.82" height="34.3" fill="white" transform="translate(37.8 35.5195)"/>
</clipPath>
<clipPath id="clip1_1_1053">
<rect width="180.82" height="34.3" fill="white" transform="translate(37.8 35.5195)"/>
</clipPath>
<clipPath id="clip2_1_1053">
<rect width="180.79" height="34.3" fill="white" transform="translate(37.8153 35.5195)"/>
</clipPath>
</defs>
</svg>
