<svg width="65" height="65" viewBox="0 0 65 65" fill="none" xmlns="http://www.w3.org/2000/svg">
<rect x="0.299805" y="0.799988" width="64" height="64" rx="16" fill="#85CD4F"/>
<path d="M20.2998 24.8H44.2998C44.5706 24.8 44.8258 24.8521 45.0654 24.9562C45.305 25.0604 45.5186 25.2062 45.7061 25.3937C45.8936 25.5812 46.0394 25.7948 46.1436 26.0344C46.2477 26.2739 46.2998 26.5292 46.2998 26.8V42.8C46.2998 43.0708 46.2477 43.326 46.1436 43.5656C46.0394 43.8052 45.8936 44.0187 45.7061 44.2062C45.5186 44.3937 45.305 44.5396 45.0654 44.6437C44.8258 44.7479 44.5706 44.8 44.2998 44.8H20.2998C20.029 44.8 19.7738 44.7479 19.5342 44.6437C19.2946 44.5396 19.0811 44.3937 18.8936 44.2062C18.7061 44.0187 18.5602 43.8052 18.4561 43.5656C18.3519 43.326 18.2998 43.0708 18.2998 42.8V21.8C18.2998 21.5292 18.3519 21.2739 18.4561 21.0344C18.5602 20.7948 18.7061 20.5812 18.8936 20.3937C19.0811 20.2062 19.2946 20.0604 19.5342 19.9562C19.7738 19.8521 20.029 19.8 20.2998 19.8H42.2998V21.8H20.2998V24.8ZM20.2998 26.8V42.8H44.2998V39.8H36.2998C36.029 39.8 35.7738 39.7479 35.5342 39.6437C35.2946 39.5396 35.0811 39.3937 34.8936 39.2062C34.7061 39.0187 34.5602 38.8052 34.4561 38.5656C34.3519 38.326 34.2998 38.0708 34.2998 37.8V31.8C34.2998 31.5292 34.3519 31.2739 34.4561 31.0344C34.5602 30.7948 34.7061 30.5812 34.8936 30.3937C35.0811 30.2062 35.2946 30.0604 35.5342 29.9562C35.7738 29.8521 36.029 29.8 36.2998 29.8H44.2998V26.8H20.2998ZM44.2998 37.8V31.8H36.2998V37.8H44.2998ZM38.2998 33.8H40.2998V35.8H38.2998V33.8Z" fill="white"/>
</svg>
