<svg width="65" height="65" viewBox="0 0 65 65" fill="none" xmlns="http://www.w3.org/2000/svg">
<rect x="0.549805" y="0.799988" width="64" height="64" rx="16" fill="#85CD4F"/>
<path d="M23.5498 18.8H41.5498C41.8206 18.8 42.0758 18.8521 42.3154 18.9562C42.555 19.0604 42.7686 19.2062 42.9561 19.3937C43.1436 19.5812 43.2894 19.7948 43.3936 20.0344C43.4977 20.2739 43.5498 20.5292 43.5498 20.8V45.8C43.5498 45.925 43.5238 46.05 43.4717 46.175C43.4196 46.3 43.3519 46.4146 43.2686 46.5187C43.1644 46.6021 43.0498 46.6698 42.9248 46.7219C42.7998 46.7739 42.6748 46.8 42.5498 46.8H41.5498C41.4665 46.8 41.3883 46.7896 41.3154 46.7687C41.2425 46.7479 41.1748 46.7271 41.1123 46.7062C41.029 46.6646 40.9613 46.6177 40.9092 46.5656C40.8571 46.5135 40.7998 46.4562 40.7373 46.3937L38.5498 43.4562L36.3623 46.3937C36.2998 46.4562 36.2373 46.5135 36.1748 46.5656C36.1123 46.6177 36.0498 46.6542 35.9873 46.675C35.9248 46.7167 35.8571 46.7427 35.7842 46.7531C35.7113 46.7635 35.6331 46.7687 35.5498 46.7687C35.4665 46.7687 35.3883 46.7635 35.3154 46.7531C35.2425 46.7427 35.1748 46.7167 35.1123 46.675C35.0498 46.6542 34.9873 46.6177 34.9248 46.5656C34.8623 46.5135 34.7998 46.4562 34.7373 46.3937L32.5498 43.4562L30.3623 46.3937C30.2998 46.4562 30.2373 46.5135 30.1748 46.5656C30.1123 46.6177 30.0498 46.6542 29.9873 46.675C29.9248 46.7167 29.8571 46.7427 29.7842 46.7531C29.7113 46.7635 29.6331 46.7687 29.5498 46.7687C29.4665 46.7687 29.3883 46.7635 29.3154 46.7531C29.2425 46.7427 29.1748 46.7167 29.1123 46.675C29.0498 46.6542 28.9873 46.6177 28.9248 46.5656C28.8623 46.5135 28.7998 46.4562 28.7373 46.3937L26.5498 43.4562L24.3623 46.3937C24.2998 46.4562 24.2425 46.5135 24.1904 46.5656C24.1383 46.6177 24.0706 46.6646 23.9873 46.7062C23.9248 46.7271 23.8571 46.7479 23.7842 46.7687C23.7113 46.7896 23.6331 46.8 23.5498 46.8H22.5498C22.4248 46.8 22.2998 46.7739 22.1748 46.7219C22.0498 46.6698 21.9352 46.6021 21.8311 46.5187C21.7477 46.4146 21.68 46.3 21.6279 46.175C21.5758 46.05 21.5498 45.925 21.5498 45.8V20.8C21.5498 20.5292 21.6019 20.2739 21.7061 20.0344C21.8102 19.7948 21.9561 19.5812 22.1436 19.3937C22.3311 19.2062 22.5446 19.0604 22.7842 18.9562C23.0238 18.8521 23.279 18.8 23.5498 18.8ZM39.3623 41.2062L41.5498 44.1437V20.8H23.5498V44.1437L25.7373 41.2062C25.7998 41.1437 25.8623 41.0864 25.9248 41.0344C25.9873 40.9823 26.0498 40.9458 26.1123 40.925C26.1748 40.8833 26.2425 40.8573 26.3154 40.8469C26.3883 40.8364 26.4665 40.8312 26.5498 40.8312C26.6331 40.8312 26.7113 40.8364 26.7842 40.8469C26.8571 40.8573 26.9248 40.8833 26.9873 40.925C27.0498 40.9458 27.1123 40.9823 27.1748 41.0344C27.2373 41.0864 27.2998 41.1437 27.3623 41.2062L29.5498 44.1437L31.7373 41.2062C31.7998 41.1437 31.8623 41.0864 31.9248 41.0344C31.9873 40.9823 32.0498 40.9458 32.1123 40.925C32.1748 40.8833 32.2425 40.8573 32.3154 40.8469C32.3883 40.8364 32.4665 40.8312 32.5498 40.8312C32.6331 40.8312 32.7113 40.8364 32.7842 40.8469C32.8571 40.8573 32.9248 40.8833 32.9873 40.925C33.0498 40.9458 33.1123 40.9823 33.1748 41.0344C33.2373 41.0864 33.2998 41.1437 33.3623 41.2062L35.5498 44.1437L37.7373 41.2062C37.7998 41.1437 37.8623 41.0864 37.9248 41.0344C37.9873 40.9823 38.0498 40.9458 38.1123 40.925C38.1748 40.8833 38.2425 40.8573 38.3154 40.8469C38.3883 40.8364 38.4665 40.8312 38.5498 40.8312C38.6331 40.8312 38.7113 40.8364 38.7842 40.8469C38.8571 40.8573 38.9248 40.8833 38.9873 40.925C39.0498 40.9458 39.1123 40.9823 39.1748 41.0344C39.2373 41.0864 39.2998 41.1437 39.3623 41.2062ZM39.5498 24.8H25.5498V26.8H39.5498V24.8ZM39.5498 28.8H37.5498V30.8H39.5498V28.8ZM25.5498 32.8H33.5498V34.8H25.5498V32.8ZM37.5498 32.8H39.5498V34.8H37.5498V32.8ZM25.5498 28.8H33.5498V30.8H25.5498V28.8Z" fill="white"/>
</svg>
