<svg width="65" height="65" viewBox="0 0 65 65" fill="none" xmlns="http://www.w3.org/2000/svg">
<rect x="0.299805" y="0.799988" width="64" height="64" rx="16" fill="#85CD4F"/>
<path d="M20.2998 36.8H24.2998V38.8H20.2998C20.029 38.8 19.7738 38.7479 19.5342 38.6437C19.2946 38.5396 19.0811 38.3937 18.8936 38.2062C18.7061 38.0187 18.5602 37.8052 18.4561 37.5656C18.3519 37.326 18.2998 37.0708 18.2998 36.8V20.8C18.2998 20.5292 18.3519 20.2739 18.4561 20.0344C18.5602 19.7948 18.7061 19.5812 18.8936 19.3937C19.0811 19.2062 19.2946 19.0604 19.5342 18.9562C19.7738 18.8521 20.029 18.8 20.2998 18.8H36.2998C36.5706 18.8 36.8258 18.8521 37.0654 18.9562C37.305 19.0604 37.5186 19.2062 37.7061 19.3937C37.8936 19.5812 38.0394 19.7948 38.1436 20.0344C38.2477 20.2739 38.2998 20.5292 38.2998 20.8V24.8H36.2998V20.8H20.2998V36.8ZM29.2998 33.8V26.8H32.2998V24.8H24.2998V26.8H27.2998V33.8H29.2998ZM45.8311 30.55L42.5498 27.2687C42.404 27.1229 42.2321 27.0083 42.0342 26.925C41.8363 26.8417 41.6331 26.8 41.4248 26.8C41.2165 26.8 41.0133 26.8417 40.8154 26.925C40.6175 27.0083 40.4456 27.1229 40.2998 27.2687L26.2998 41.2687V46.8H31.8311L45.8311 32.8C45.9769 32.6542 46.0915 32.4823 46.1748 32.2844C46.2581 32.0864 46.2998 31.8833 46.2998 31.675C46.2998 31.4667 46.2581 31.2635 46.1748 31.0656C46.0915 30.8677 45.9769 30.6958 45.8311 30.55ZM31.0186 44.8H28.2998V42.0812L37.7373 32.6437L40.4561 35.3625L31.0186 44.8ZM41.8623 33.9562L39.1436 31.2375L41.4248 28.9875L44.1123 31.675L41.8623 33.9562Z" fill="white"/>
</svg>
