<svg width="65" height="65" viewBox="0 0 65 65" fill="none" xmlns="http://www.w3.org/2000/svg">
<rect x="0.549805" y="0.799988" width="64" height="64" rx="16" fill="#85CD4F"/>
<path d="M43.5186 29.8H45.5498C45.6748 29.8 45.7998 29.826 45.9248 29.8781C46.0498 29.9302 46.1644 29.9979 46.2686 30.0812C46.3519 30.1854 46.4196 30.3 46.4717 30.425C46.5238 30.55 46.5498 30.675 46.5498 30.8V35.8C46.5498 35.925 46.5238 36.05 46.4717 36.175C46.4196 36.3 46.3519 36.4146 46.2686 36.5187C46.1644 36.6021 46.0498 36.6698 45.9248 36.7219C45.7998 36.7739 45.6748 36.8 45.5498 36.8H43.3623C43.2998 37.1958 43.1852 37.576 43.0186 37.9406C42.8519 38.3052 42.6436 38.6437 42.3936 38.9562C42.1436 39.2687 41.8623 39.55 41.5498 39.8C41.2373 40.05 40.904 40.2583 40.5498 40.425V43.8C40.5498 43.925 40.5238 44.05 40.4717 44.175C40.4196 44.3 40.3519 44.4146 40.2686 44.5187C40.1644 44.6021 40.0498 44.6698 39.9248 44.7219C39.7998 44.7739 39.6748 44.8 39.5498 44.8H35.5498C35.4248 44.8 35.2998 44.7739 35.1748 44.7219C35.0498 44.6698 34.9352 44.6021 34.8311 44.5187C34.7477 44.4146 34.68 44.3 34.6279 44.175C34.5758 44.05 34.5498 43.925 34.5498 43.8V41.8H31.5498V43.8C31.5498 43.925 31.5238 44.05 31.4717 44.175C31.4196 44.3 31.3519 44.4146 31.2686 44.5187C31.1644 44.6021 31.0498 44.6698 30.9248 44.7219C30.7998 44.7739 30.6748 44.8 30.5498 44.8H26.5498C26.4248 44.8 26.2998 44.7739 26.1748 44.7219C26.0498 44.6698 25.9352 44.6021 25.8311 44.5187C25.7477 44.4146 25.68 44.3 25.6279 44.175C25.5758 44.05 25.5498 43.925 25.5498 43.8V40.3625C25.0081 39.9875 24.5133 39.5604 24.0654 39.0812C23.6175 38.6021 23.2165 38.0812 22.8623 37.5187C22.529 36.9354 22.2581 36.3312 22.0498 35.7062C21.8415 35.0812 21.6956 34.4458 21.6123 33.8H21.5498C21.154 33.8 20.7738 33.7219 20.4092 33.5656C20.0446 33.4094 19.7165 33.1958 19.4248 32.925C19.154 32.6333 18.9404 32.3052 18.7842 31.9406C18.6279 31.576 18.5498 31.1958 18.5498 30.8V28.8H20.5498V30.8C20.5498 30.925 20.5758 31.05 20.6279 31.175C20.68 31.3 20.7477 31.4146 20.8311 31.5187C20.9352 31.6021 21.0498 31.6698 21.1748 31.7219C21.2998 31.7739 21.4248 31.8 21.5498 31.8H21.6123C21.7165 30.6125 22.0394 29.5292 22.5811 28.55C23.1227 27.5708 23.8258 26.7271 24.6904 26.0187C25.555 25.3104 26.5706 24.7687 27.7373 24.3937C28.904 23.9979 30.1748 23.8 31.5498 23.8H36.2061L39.9561 20.9875C40.0186 20.9458 40.0967 20.9094 40.1904 20.8781C40.2842 20.8469 40.3727 20.8208 40.4561 20.8C40.5602 20.8 40.654 20.8052 40.7373 20.8156C40.8206 20.826 40.904 20.8521 40.9873 20.8937C41.0706 20.9354 41.1488 20.9875 41.2217 21.05C41.2946 21.1125 41.3519 21.1854 41.3936 21.2687C41.4561 21.3521 41.4977 21.4406 41.5186 21.5344C41.5394 21.6281 41.5498 21.7167 41.5498 21.8V25.6437C41.8415 25.9146 42.1071 26.2062 42.3467 26.5187C42.5863 26.8312 42.7894 27.1646 42.9561 27.5187C43.1436 27.8729 43.2842 28.2427 43.3779 28.6281C43.4717 29.0135 43.5186 29.4042 43.5186 29.8ZM41.6748 34.8H44.5498V31.8H41.5811C41.5602 31.6333 41.5498 31.4667 41.5498 31.3C41.5498 31.1333 41.5498 30.9667 41.5498 30.8C41.5498 30.05 41.4665 29.3521 41.2998 28.7062C41.1331 28.0604 40.5498 27.3521 39.5498 26.5812V23.8L36.8936 25.8H31.5498C30.5498 25.8 29.5706 25.9354 28.6123 26.2062C27.654 26.4771 26.7998 26.8989 26.0498 27.4719C25.2998 28.0448 24.6956 28.7792 24.2373 29.675C23.779 30.55 23.5498 31.5917 23.5498 32.8C23.5498 33.4667 23.6383 34.1229 23.8154 34.7687C23.9925 35.4146 24.2581 36.0187 24.6123 36.5812C24.9665 37.1437 25.3936 37.6437 25.8936 38.0812C26.3936 38.5187 26.9456 38.8833 27.5498 39.175V42.8H29.5498V39.8H36.5498V42.8H38.5498V39.1125C39.6956 38.6958 40.4665 38.2167 40.8623 37.675C41.2581 37.1333 41.529 36.175 41.6748 34.8ZM36.5498 30.8H33.0498C32.9873 30.8 32.9248 30.8104 32.8623 30.8312C32.7998 30.8521 32.7477 30.8937 32.7061 30.9562C32.6436 30.9979 32.6019 31.05 32.5811 31.1125C32.5602 31.175 32.5498 31.2375 32.5498 31.3C32.5498 31.3625 32.5602 31.425 32.5811 31.4875C32.6019 31.55 32.6436 31.6021 32.7061 31.6437C32.7477 31.7062 32.7998 31.7479 32.8623 31.7687C32.9248 31.7896 32.9873 31.8 33.0498 31.8H34.0498C34.3623 31.8 34.6644 31.8573 34.9561 31.9719C35.2477 32.0864 35.5081 32.2479 35.7373 32.4562C35.9665 32.6646 36.1488 32.9042 36.2842 33.175C36.4196 33.4458 36.5081 33.7375 36.5498 34.05C36.5706 34.3625 36.5394 34.6646 36.4561 34.9562C36.3727 35.2479 36.2373 35.5187 36.0498 35.7687C35.8831 36.0187 35.6696 36.2271 35.4092 36.3937C35.1488 36.5604 34.8623 36.675 34.5498 36.7375V37.8H32.5498V36.8H30.5498V34.8H34.0498C34.1123 34.8 34.1748 34.7896 34.2373 34.7687C34.2998 34.7479 34.3519 34.7062 34.3936 34.6437C34.4561 34.6021 34.4977 34.55 34.5186 34.4875C34.5394 34.425 34.5498 34.3625 34.5498 34.3C34.5498 34.2375 34.5394 34.175 34.5186 34.1125C34.4977 34.05 34.4561 33.9979 34.3936 33.9562C34.3519 33.8937 34.2998 33.8521 34.2373 33.8312C34.1748 33.8104 34.1123 33.8 34.0498 33.8H33.0498C32.7373 33.8 32.4352 33.7427 32.1436 33.6281C31.8519 33.5135 31.5915 33.3521 31.3623 33.1437C31.1331 32.9354 30.9508 32.6958 30.8154 32.425C30.68 32.1542 30.5915 31.8625 30.5498 31.55C30.529 31.2375 30.5602 30.9354 30.6436 30.6437C30.7269 30.3521 30.8623 30.0812 31.0498 29.8312C31.2165 29.5812 31.43 29.3729 31.6904 29.2062C31.9508 29.0396 32.2373 28.925 32.5498 28.8625V27.8H34.5498V28.8H36.5498V30.8Z" fill="white"/>
</svg>
