<svg width="303" height="110" viewBox="0 0 303 110" fill="none" xmlns="http://www.w3.org/2000/svg">
<g filter="url(#filter0_d_39_699)">
<mask id="path-1-inside-1_39_699" fill="white">
<path d="M7 28C7 14.7452 17.7452 4 31 4H272C285.255 4 296 14.7452 296 28V76C296 89.2548 285.255 100 272 100H31C17.7452 100 7 89.2548 7 76V28Z"/>
</mask>
<path d="M7 28C7 14.7452 17.7452 4 31 4H272C285.255 4 296 14.7452 296 28V76C296 89.2548 285.255 100 272 100H31C17.7452 100 7 89.2548 7 76V28Z" fill="white" fill-opacity="0.01" shape-rendering="crispEdges"/>
<path d="M31 5H272V3H31V5ZM295 28V76H297V28H295ZM272 99H31V101H272V99ZM8 76V28H6V76H8ZM31 99C18.2975 99 8 88.7025 8 76H6C6 89.8071 17.1929 101 31 101V99ZM295 76C295 88.7025 284.703 99 272 99V101C285.808 101 297 89.8071 297 76H295ZM272 5C284.703 5 295 15.2975 295 28H297C297 14.1929 285.807 3 272 3V5ZM31 3C17.1929 3 6 14.1929 6 28H8C8 15.2975 18.2974 5 31 5V3Z" fill="#838383" fill-opacity="0.25" mask="url(#path-1-inside-1_39_699)"/>
<path d="M114.787 51.5109V43.942H119.037C121.728 43.942 123.348 45.4032 123.348 47.7411C123.348 50.0205 121.697 51.5109 119.037 51.5109H114.787ZM119.679 55.9529C125.121 55.9529 128.76 52.5337 128.76 47.7118C128.76 42.8899 125.121 39.5 119.679 39.5H109.375V65.8889H114.756V55.9529H119.679Z" fill="black"/>
<path d="M137.534 55.0498C137.654 53.0229 138.915 51.4661 141.047 51.4661C143.48 51.4661 144.531 53.0817 144.531 55.1379V65.889H149.637V54.2861C149.637 50.2324 147.414 47.0012 142.639 47.0012C140.837 47.0012 138.765 47.5887 137.564 49.028V38.8057H132.488V65.889H137.564V55.0498H137.534Z" fill="black"/>
<path d="M153.364 60.5517C153.364 63.319 155.98 65.8887 160.222 65.8887C163.188 65.8887 165.102 64.6744 166.123 63.2625C166.123 63.9685 166.187 64.6744 166.314 65.3804H171.258C171.099 64.4485 171.035 63.5167 171.003 62.5848V53.8593C171.003 50.3013 168.643 47.1387 162.295 47.1387C156.937 47.1387 154.034 50.1884 153.715 52.9557L158.5 53.8593C158.659 52.3062 159.967 50.979 162.327 50.979C164.592 50.979 165.708 52.0238 165.708 53.2945C165.708 53.9158 165.357 54.4241 164.209 54.5653L159.297 55.2147C155.98 55.6101 153.364 57.389 153.364 60.5517ZM161.37 62.3024C159.616 62.3024 158.787 61.2859 158.787 60.2411C158.787 58.8857 159.871 58.1797 161.275 58.0103L165.772 57.389V58.1797C165.74 61.3424 163.635 62.3024 161.37 62.3024Z" fill="black"/>
<path d="M181.04 55.3491C181.04 53.2237 182.383 51.5641 184.694 51.5641C187.223 51.5641 188.316 53.1655 188.316 55.2035V65.8596H193.625V54.3592C193.625 50.3413 191.408 47.1387 186.536 47.1387C184.413 47.1387 182.071 47.983 180.884 49.8755V47.6336H175.731V65.8887H181.009V55.3491H181.04Z" fill="black"/>
<path d="M205.368 42.2773H200.615V44.8016C200.615 46.4079 199.652 47.6414 197.602 47.6414H196.607V51.9441H200.118V60.32C200.118 63.7909 202.479 65.8849 206.3 65.8849C207.325 65.9136 208.319 65.7701 209.282 65.4546V61.4674C208.754 61.5822 208.195 61.6108 207.667 61.6108C206.176 61.6108 205.368 61.0945 205.368 59.5169V52.0015H209.282V47.6988H205.368V42.2773Z" fill="black"/>
<path d="M221.584 61.5683C219.045 61.5683 216.719 59.8458 216.719 56.542C216.719 53.2382 219.045 51.5157 221.584 51.5157C224.123 51.5157 226.448 53.2099 226.448 56.542C226.448 59.874 224.123 61.5683 221.584 61.5683ZM221.584 47.1388C215.863 47.1388 211.519 51.0639 211.519 56.5137C211.519 61.9636 215.863 65.8887 221.584 65.8887C227.305 65.8887 231.649 61.9354 231.649 56.5137C231.649 51.0921 227.305 47.1106 221.584 47.1388Z" fill="black"/>
<path d="M241.288 65.8887V55.2366C241.288 53.2339 242.595 51.6375 244.843 51.6375C247.152 51.6375 248.216 53.1178 248.216 55.0624V65.8597H253.32V55.2076C253.32 53.2339 254.627 51.6085 256.845 51.6085C259.215 51.6085 260.218 53.0887 260.218 55.0334V65.8306H265.2V54.0466C265.2 49.1704 261.828 47.1387 258.303 47.1387C255.781 47.1387 253.776 47.9514 252.257 50.1863C251.285 48.2126 249.188 47.1387 246.606 47.1387C244.509 47.1387 242.078 48.0965 241.045 49.867V47.6611H236.123V65.8597L241.288 65.8887Z" fill="black"/>
<path d="M64.2677 77C78.8855 77 90.7356 65.8071 90.7356 52C90.7356 38.1929 78.8855 27 64.2677 27C49.6499 27 37.7998 38.1929 37.7998 52C37.7998 65.8071 49.6499 77 64.2677 77Z" fill="url(#paint0_linear_39_699)"/>
<path d="M83.0629 52.5038H78.3819C78.3819 43.4022 70.6522 36.0273 61.1055 36.0273C51.6511 36.0273 43.9522 43.1974 43.7674 52.1819C43.5826 61.3712 52.6982 69.3607 62.3989 69.3607H63.6307C72.192 69.3607 83.6788 63.0101 85.465 55.284C85.7422 54.0256 84.8799 52.8257 83.5557 52.5623C83.4017 52.5038 83.2477 52.5038 83.0629 52.5038ZM54.1148 52.9135C54.1148 54.1427 53.0678 55.1084 51.7743 55.1084C50.4809 55.1084 49.4646 54.1134 49.4646 52.9135V49.3431C49.4646 48.114 50.5117 47.1482 51.8051 47.1482C53.0986 47.1482 54.1148 48.1432 54.1148 49.3431V52.9135ZM62.1833 52.9135C62.1833 54.1427 61.1363 55.1084 59.8428 55.1084C58.5494 55.1084 57.5332 54.1134 57.5332 52.9135V49.3431C57.5332 48.114 58.5802 47.1482 59.8736 47.1482C61.1671 47.1482 62.1833 48.1432 62.1833 49.3431V52.9135Z" fill="url(#paint1_linear_39_699)"/>
</g>
<defs>
<filter id="filter0_d_39_699" x="0" y="0" width="303" height="110" filterUnits="userSpaceOnUse" color-interpolation-filters="sRGB">
<feFlood flood-opacity="0" result="BackgroundImageFix"/>
<feColorMatrix in="SourceAlpha" type="matrix" values="0 0 0 0 0 0 0 0 0 0 0 0 0 0 0 0 0 0 127 0" result="hardAlpha"/>
<feMorphology radius="1" operator="erode" in="SourceAlpha" result="effect1_dropShadow_39_699"/>
<feOffset dy="3"/>
<feGaussianBlur stdDeviation="4"/>
<feComposite in2="hardAlpha" operator="out"/>
<feColorMatrix type="matrix" values="0 0 0 0 0 0 0 0 0 0 0 0 0 0 0 0 0 0 0.08 0"/>
<feBlend mode="normal" in2="BackgroundImageFix" result="effect1_dropShadow_39_699"/>
<feBlend mode="normal" in="SourceGraphic" in2="effect1_dropShadow_39_699" result="shape"/>
</filter>
<linearGradient id="paint0_linear_39_699" x1="64.28" y1="27" x2="64.28" y2="77.0232" gradientUnits="userSpaceOnUse">
<stop stop-color="#534BB1"/>
<stop offset="1" stop-color="#551BF9"/>
</linearGradient>
<linearGradient id="paint1_linear_39_699" x1="64.6389" y1="36.1034" x2="64.6389" y2="69.3578" gradientUnits="userSpaceOnUse">
<stop stop-color="white"/>
<stop offset="1" stop-color="white" stop-opacity="0.82"/>
</linearGradient>
</defs>
</svg>
