<svg width="63" height="63" viewBox="0 0 63 63" fill="none" xmlns="http://www.w3.org/2000/svg">
<rect x="14.0498" y="0.950195" width="50" height="50" rx="25" transform="rotate(16 14.0498 0.950195)" fill="#D3A605"/>
<path d="M17.3773 32.6629L18.1342 30.0232L25.9396 26.0809C26.6097 25.7237 27.1807 25.393 27.6524 25.0888C28.1299 24.7862 28.5175 24.467 28.8152 24.1311C29.1145 23.7897 29.3297 23.3905 29.4607 22.9337C29.6063 22.426 29.616 21.9557 29.4899 21.5228C29.3654 21.0842 29.1312 20.7088 28.7873 20.3966C28.4451 20.0787 28.0201 19.847 27.5125 19.7014C26.9823 19.5494 26.4891 19.5239 26.0328 19.625C25.5765 19.7261 25.1838 19.9462 24.8546 20.2852C24.5254 20.6242 24.2816 21.0701 24.1231 21.6229L20.6458 20.6258C20.9709 19.492 21.5097 18.5814 22.2624 17.8938C23.015 17.2062 23.9194 16.7666 24.9754 16.575C26.0314 16.3833 27.163 16.4606 28.37 16.8067C29.6109 17.1625 30.628 17.6922 31.4212 18.3958C32.2217 19.0953 32.7678 19.9051 33.0595 20.825C33.3512 21.7449 33.3539 22.704 33.0676 23.7024C32.88 24.3567 32.5651 24.9653 32.1229 25.5283C31.6863 26.0928 31.0293 26.6705 30.1518 27.2613C29.2759 27.8464 28.0876 28.5098 26.587 29.2515L23.3464 31.0051L23.3125 31.1235L30.5886 33.2099L29.7298 36.205L17.3773 32.6629ZM38.6449 39.0177C37.4491 38.6748 36.4462 38.1492 35.636 37.4407C34.8315 36.7339 34.2665 35.9157 33.9409 34.9861C33.6154 34.0565 33.5845 33.0892 33.8482 32.0844L37.4016 33.1034C37.2487 33.7859 37.3746 34.4111 37.7795 34.9789C38.1843 35.5467 38.7478 35.9341 39.4697 36.1411C40.0451 36.3061 40.5891 36.3247 41.1018 36.1971C41.6218 36.0654 42.0714 35.8067 42.4506 35.421C42.837 35.0312 43.116 34.5374 43.2874 33.9395C43.4621 33.3304 43.486 32.7573 43.3592 32.2204C43.238 31.6851 42.9889 31.2231 42.6121 30.8342C42.2353 30.4454 41.7572 30.1648 41.1778 29.9926C40.6702 29.847 40.1468 29.8099 39.6075 29.8811C39.0738 29.9539 38.6227 30.1328 38.2541 30.4178L35.1642 28.9L38.605 19.9979L49.1976 23.0353L48.3388 26.0303L40.7666 23.859L39.0736 28.0707L39.1751 28.0998C39.6026 27.7585 40.1642 27.535 40.8599 27.4293C41.5556 27.3235 42.2841 27.3798 43.0456 27.5982C44.0891 27.8974 44.9494 28.4096 45.6265 29.1348C46.3037 29.8601 46.7562 30.7193 46.9842 31.7125C47.2138 32.7 47.1664 33.7486 46.8421 34.8581C46.513 36.0273 45.9447 36.9875 45.1371 37.7387C44.3369 38.4859 43.3745 38.9791 42.2499 39.2182C41.1326 39.4533 39.9309 39.3864 38.6449 39.0177Z" fill="white"/>
<path d="M26.8542 48.8314L27.0445 48.1678C27.1889 47.664 27.4282 47.2316 27.7622 46.8708C28.1014 46.507 28.5123 46.2569 28.9947 46.1204C29.4825 45.9809 30.0233 45.9964 30.6173 46.1667C31.2194 46.3394 31.6889 46.6114 32.0257 46.9828C32.3666 47.3554 32.5804 47.7847 32.6672 48.2706C32.7592 48.7536 32.7324 49.2491 32.5867 49.757L32.3965 50.4206C32.252 50.9245 32.0122 51.3589 31.677 51.7238C31.343 52.0846 30.9327 52.3327 30.4462 52.4681C29.9585 52.6075 29.4176 52.592 28.8237 52.4217C28.2215 52.2491 27.7526 51.975 27.417 51.5994C27.0802 51.228 26.8658 50.8008 26.7738 50.3178C26.6829 49.8307 26.7097 49.3352 26.8542 48.8314ZM28.8325 48.6805L28.6422 49.3441C28.5588 49.6349 28.5498 49.9294 28.615 50.2274C28.6844 50.5265 28.9055 50.7296 29.2782 50.8365C29.651 50.9434 29.9414 50.8892 30.1494 50.674C30.3615 50.46 30.5104 50.2034 30.5961 49.9044L30.7864 49.2408C30.8722 48.9418 30.8865 48.6444 30.8294 48.3488C30.7723 48.0531 30.5513 47.8501 30.1662 47.7397C29.7976 47.634 29.5045 47.6896 29.2872 47.9065C29.0698 48.1235 28.9182 48.3815 28.8325 48.6805ZM22.4613 39.7784L22.6516 39.1148C22.7973 38.6069 23.0391 38.1731 23.3772 37.8134C23.7165 37.4496 24.1273 37.1995 24.6098 37.063C25.0963 36.9276 25.6325 36.944 26.2183 37.1119C26.8245 37.2858 27.296 37.5584 27.6328 37.9298C27.9696 38.3013 28.1835 38.7305 28.2743 39.2176C28.3663 39.7006 28.3395 40.1961 28.1939 40.704L28.0036 41.3676C27.8579 41.8756 27.6161 42.3094 27.278 42.669C26.944 43.0299 26.5337 43.2779 26.0472 43.4133C25.5659 43.5457 25.0262 43.5262 24.4282 43.3547C23.8301 43.1832 23.3606 42.9111 23.0197 42.5385C22.6841 42.163 22.4697 41.7358 22.3765 41.2569C22.2886 40.7751 22.3168 40.2822 22.4613 39.7784ZM24.4519 39.631L24.2616 40.2946C24.1759 40.5937 24.1662 40.8901 24.2327 41.184C24.3032 41.4791 24.5187 41.6783 24.8792 41.7817C25.2561 41.8898 25.5485 41.8362 25.7565 41.621C25.9686 41.4069 26.1175 41.1504 26.2033 40.8514L26.3936 40.1878C26.4793 39.8888 26.4936 39.5914 26.4366 39.2958C26.3795 39.0001 26.1564 38.7965 25.7672 38.6849C25.4026 38.5804 25.1131 38.6392 24.8987 38.8614C24.6842 39.0837 24.5353 39.3402 24.4519 39.631ZM20.5309 49.5717L32.7906 39.4686L34.4004 39.9302L22.1407 50.0333L20.5309 49.5717Z" fill="white"/>
</svg>
