<svg width="63" height="63" viewBox="0 0 63 63" fill="none" xmlns="http://www.w3.org/2000/svg">
<rect x="14.0596" y="0.950195" width="50" height="50" rx="25" transform="rotate(16 14.0596 0.950195)" fill="#D3A605"/>
<path d="M31.7187 38.2675C30.1352 37.8067 28.883 37.0254 27.9621 35.9235C27.0474 34.8234 26.4934 33.4509 26.3 31.8062C26.1128 30.1633 26.3183 28.3104 26.9164 26.2477C27.5067 24.1893 28.3138 22.5223 29.3379 21.2466C30.3682 19.9727 31.56 19.1209 32.9134 18.691C34.2748 18.2568 35.745 18.2661 37.3241 18.7189C38.9032 19.1717 40.1519 19.9421 41.0702 21.0299C41.9946 22.1196 42.5561 23.4775 42.7547 25.1038C42.9551 26.7239 42.7571 28.5623 42.1608 30.6189C41.567 32.6896 40.7524 34.3711 39.7168 35.6634C38.6874 36.9575 37.4934 37.8287 36.1347 38.2769C34.7759 38.7252 33.304 38.722 31.7187 38.2675ZM32.6675 34.9587C33.7489 35.2688 34.7681 34.9725 35.7251 34.07C36.6821 33.1674 37.4694 31.6277 38.087 29.4508C38.4975 28.0191 38.6919 26.7848 38.67 25.7479C38.6543 24.7127 38.4479 23.8788 38.0508 23.2462C37.6598 22.6155 37.1048 22.197 36.3859 21.9909C35.3106 21.6825 34.2963 21.9735 33.3428 22.8638C32.3893 23.7541 31.602 25.2705 30.981 27.4132C30.5652 28.8632 30.3625 30.1151 30.3729 31.1687C30.3912 32.218 30.598 33.0619 30.9934 33.7006C31.3906 34.3332 31.9486 34.7525 32.6675 34.9587Z" fill="white"/>
<path d="M26.864 48.8314L27.0542 48.1678C27.1987 47.664 27.4379 47.2316 27.7719 46.8708C28.1112 46.507 28.5221 46.2569 29.0045 46.1204C29.4922 45.9809 30.0331 45.9964 30.627 46.1667C31.2292 46.3394 31.6987 46.6114 32.0355 46.9828C32.3764 47.3554 32.5902 47.7847 32.677 48.2706C32.769 48.7536 32.7422 49.2491 32.5965 49.757L32.4062 50.4206C32.2618 50.9245 32.0219 51.3589 31.6868 51.7238C31.3528 52.0846 30.9425 52.3327 30.456 52.4681C29.9682 52.6075 29.4274 52.592 28.8334 52.4217C28.2313 52.2491 27.7624 51.975 27.4268 51.5994C27.09 51.228 26.8755 50.8008 26.7835 50.3178C26.6927 49.8307 26.7195 49.3352 26.864 48.8314ZM28.8423 48.6805L28.652 49.3441C28.5686 49.6349 28.5595 49.9294 28.6248 50.2274C28.6942 50.5265 28.9152 50.7296 29.288 50.8365C29.6608 50.9434 29.9511 50.8892 30.1591 50.674C30.3712 50.46 30.5202 50.2034 30.6059 49.9044L30.7962 49.2408C30.8819 48.9418 30.8963 48.6444 30.8392 48.3488C30.7821 48.0531 30.561 47.8501 30.176 47.7397C29.8073 47.634 29.5143 47.6896 29.2969 47.9065C29.0796 48.1235 28.928 48.3815 28.8423 48.6805ZM22.4711 39.7784L22.6614 39.1148C22.807 38.6069 23.0489 38.1731 23.387 37.8134C23.7262 37.4496 24.1371 37.1995 24.6195 37.063C25.1061 36.9276 25.6423 36.944 26.228 37.1119C26.8343 37.2858 27.3058 37.5584 27.6426 37.9298C27.9794 38.3013 28.1932 38.7305 28.2841 39.2176C28.3761 39.7006 28.3493 40.1961 28.2036 40.704L28.0134 41.3676C27.8677 41.8756 27.6258 42.3094 27.2878 42.669C26.9538 43.0299 26.5435 43.2779 26.057 43.4133C25.5757 43.5457 25.036 43.5262 24.4379 43.3547C23.8399 43.1832 23.3704 42.9111 23.0295 42.5385C22.6939 42.163 22.4795 41.7358 22.3863 41.2569C22.2983 40.7751 22.3266 40.2822 22.4711 39.7784ZM24.4617 39.631L24.2714 40.2946C24.1857 40.5937 24.176 40.8901 24.2425 41.184C24.313 41.4791 24.5285 41.6783 24.889 41.7817C25.2658 41.8898 25.5583 41.8362 25.7663 41.621C25.9784 41.4069 26.1273 41.1504 26.213 40.8514L26.4033 40.1878C26.4891 39.8888 26.5034 39.5914 26.4463 39.2958C26.3892 39.0001 26.1661 38.7965 25.777 38.6849C25.4124 38.5804 25.1229 38.6392 24.9085 38.8614C24.694 39.0837 24.5451 39.3402 24.4617 39.631ZM20.5407 49.5717L32.8004 39.4686L34.4102 39.9302L22.1505 50.0333L20.5407 49.5717Z" fill="white"/>
</svg>
