<svg width="63" height="63" viewBox="0 0 63 63" fill="none" xmlns="http://www.w3.org/2000/svg">
<rect x="14.0503" y="0.75" width="50" height="50" rx="25" transform="rotate(16 14.0503 0.75)" fill="#D3A605"/>
<path d="M22.8862 15.6147L18.0023 32.6471L14.4012 31.6145L18.305 18.0003L18.2052 17.9717L13.6036 19.2983L14.5193 16.1047L19.5013 14.6442L22.8862 15.6147ZM28.6213 36.0971C27.1924 35.6814 26.0625 34.9763 25.2316 33.982C24.4062 32.9893 23.9062 31.7509 23.7318 30.2668C23.5628 28.7843 23.7482 27.1124 24.288 25.2511C24.8205 23.3937 25.5489 21.8895 26.473 20.7384C27.4026 19.5889 28.4781 18.8203 29.6993 18.4324C30.9277 18.0406 32.2544 18.049 33.6793 18.4576C35.1042 18.8662 36.2309 19.5613 37.0595 20.5429C37.8936 21.5261 38.4003 22.7515 38.5795 24.2189C38.7604 25.6808 38.5817 27.3397 38.0436 29.1955C37.5078 31.0639 36.7727 32.5812 35.8383 33.7473C34.9095 34.915 33.832 35.7011 32.606 36.1056C31.3799 36.5101 30.0517 36.5072 28.6213 36.0971ZM29.4774 33.1114C30.4532 33.3912 31.3729 33.1239 32.2364 32.3095C33.1 31.4951 33.8104 30.1057 34.3677 28.1414C34.7381 26.8496 34.9134 25.7358 34.8937 24.8001C34.8796 23.866 34.6933 23.1136 34.335 22.5428C33.9821 21.9736 33.4814 21.596 32.8327 21.41C31.8624 21.1318 30.9471 21.3943 30.0867 22.1977C29.2263 23.001 28.516 24.3694 27.9556 26.3028C27.5804 27.6112 27.3975 28.7408 27.4069 29.6916C27.4234 30.6384 27.61 31.3999 27.9668 31.9762C28.3252 32.547 28.8287 32.9254 29.4774 33.1114ZM44.745 40.7205C43.3162 40.3048 42.1863 39.5998 41.3553 38.6055C40.5299 37.6127 40.03 36.3743 39.8555 34.8902C39.6866 33.4077 39.872 31.7358 40.4117 29.8745C40.9443 28.0171 41.6727 26.5129 42.5968 25.3618C43.5264 24.2123 44.6018 23.4437 45.8231 23.0558C47.0515 22.664 48.3781 22.6724 49.8031 23.081C51.228 23.4896 52.3547 24.1847 53.1833 25.1663C54.0174 26.1495 54.5241 27.3749 54.7033 28.8423C54.8841 30.3042 54.7055 31.9631 54.1674 33.8189C53.6316 35.6873 52.8965 37.2046 51.9621 38.3707C51.0332 39.5385 49.9558 40.3246 48.7298 40.729C47.5037 41.1335 46.1755 41.1307 44.745 40.7205ZM45.6011 37.7348C46.577 38.0146 47.4966 37.7473 48.3602 36.9329C49.2238 36.1185 49.9342 34.7291 50.4914 32.7648C50.8619 31.473 51.0372 30.3592 51.0175 29.4235C51.0033 28.4894 50.8171 27.737 50.4587 27.1662C50.1059 26.597 49.6052 26.2194 48.9565 26.0334C47.9862 25.7552 47.0709 26.0177 46.2105 26.8211C45.3501 27.6244 44.6397 28.9928 44.0793 30.9262C43.7041 32.2347 43.5212 33.3643 43.5306 34.315C43.5472 35.2618 43.7338 36.0233 44.0906 36.5996C44.4489 37.1704 44.9525 37.5488 45.6011 37.7348Z" fill="white"/>
<path d="M26.8449 48.6302L27.0352 47.9666C27.1797 47.4628 27.4189 47.0305 27.7529 46.6696C28.0922 46.3059 28.503 46.0557 28.9855 45.9192C29.4732 45.7798 30.014 45.7952 30.608 45.9655C31.2101 46.1382 31.6796 46.4102 32.0164 46.7817C32.3573 47.1543 32.5712 47.5835 32.6579 48.0695C32.7499 48.5524 32.7231 49.0479 32.5775 49.5559L32.3872 50.2195C32.2427 50.7233 32.0029 51.1577 31.6677 51.5226C31.3337 51.8835 30.9235 52.1315 30.4369 52.2669C29.9492 52.4063 29.4084 52.3909 28.8144 52.2206C28.2122 52.0479 27.7433 51.7738 27.4077 51.3983C27.0709 51.0268 26.8565 50.5996 26.7645 50.1166C26.6736 49.6295 26.7004 49.1341 26.8449 48.6302ZM28.8232 48.4793L28.6329 49.1429C28.5495 49.4338 28.5405 49.7282 28.6058 50.0262C28.6751 50.3254 28.8962 50.5284 29.269 50.6353C29.6417 50.7422 29.9321 50.688 30.1401 50.4728C30.3522 50.2588 30.5011 50.0023 30.5869 49.7032L30.7772 49.0396C30.8629 48.7406 30.8772 48.4433 30.8201 48.1476C30.7631 47.8519 30.542 47.6489 30.1569 47.5385C29.7883 47.4328 29.4953 47.4884 29.2779 47.7054C29.0605 47.9223 28.909 48.1803 28.8232 48.4793ZM22.452 39.5772L22.6423 38.9136C22.788 38.4057 23.0298 37.9719 23.3679 37.6122C23.7072 37.2485 24.118 36.9983 24.6005 36.8618C25.087 36.7265 25.6232 36.7428 26.209 36.9108C26.8152 37.0846 27.2868 37.3572 27.6236 37.7287C27.9604 38.1001 28.1742 38.5293 28.265 39.0164C28.3571 39.4994 28.3303 39.9949 28.1846 40.5028L27.9943 41.1664C27.8487 41.6744 27.6068 42.1082 27.2687 42.4678C26.9347 42.8287 26.5245 43.0768 26.0379 43.2121C25.5566 43.3445 25.017 43.325 24.4189 43.1535C23.8208 42.982 23.3514 42.71 23.0105 42.3374C22.6748 41.9618 22.4604 41.5346 22.3672 41.0557C22.2793 40.5739 22.3076 40.0811 22.452 39.5772ZM24.4426 39.4299L24.2524 40.0935C24.1666 40.3925 24.157 40.6889 24.2234 40.9829C24.294 41.2779 24.5095 41.4772 24.8699 41.5805C25.2468 41.6886 25.5392 41.635 25.7472 41.4198C25.9593 41.2058 26.1083 40.9492 26.194 40.6502L26.3843 39.9866C26.47 39.6876 26.4844 39.3902 26.4273 39.0946C26.3702 38.7989 26.1471 38.5953 25.7579 38.4837C25.3934 38.3792 25.1039 38.438 24.8894 38.6603C24.675 38.8825 24.526 39.139 24.4426 39.4299ZM20.5216 49.3705L32.7813 39.2675L34.3912 39.7291L22.1315 49.8321L20.5216 49.3705Z" fill="white"/>
</svg>
