<svg width="63" height="63" viewBox="0 0 63 63" fill="none" xmlns="http://www.w3.org/2000/svg">
<rect x="14.0498" y="0.75" width="50" height="50" rx="25" transform="rotate(16 14.0498 0.75)" fill="#D3A605"/>
<path d="M28.3866 16.9377C29.2626 17.1889 30.0633 17.5775 30.7885 18.1035C31.5192 18.631 32.1112 19.3078 32.5644 20.1338C33.0231 20.9614 33.2856 21.9607 33.3518 23.1317C33.4252 24.2988 33.2437 25.6538 32.8072 27.1967C32.3923 28.6438 31.8583 29.8888 31.2053 30.9316C30.5594 31.9704 29.8206 32.7996 28.9889 33.4192C28.1572 34.0387 27.2548 34.434 26.2818 34.605C25.3103 34.7704 24.2978 34.7021 23.2444 34.4001C22.1078 34.0742 21.1671 33.5674 20.4222 32.8798C19.6789 32.1866 19.15 31.3839 18.8356 30.4717C18.5283 29.5556 18.4559 28.6048 18.6184 27.6194L22.1696 28.6376C22.1302 29.2984 22.2829 29.8642 22.6279 30.3351C22.9745 30.8005 23.4749 31.127 24.1291 31.3146C25.238 31.6326 26.2191 31.3919 27.0723 30.5925C27.9272 29.7876 28.599 28.5431 29.0878 26.8592L28.9714 26.8259C28.5733 27.2517 28.1063 27.5828 27.5705 27.8192C27.0363 28.0501 26.4614 28.1822 25.8458 28.2157C25.2357 28.2508 24.6174 28.1785 23.9909 27.9988C22.9873 27.7111 22.1595 27.2187 21.5073 26.5216C20.8552 25.8246 20.4202 24.9979 20.2024 24.0414C19.9847 23.0849 20.0276 22.0772 20.3313 21.0182C20.6532 19.8745 21.2083 18.9326 21.9966 18.1926C22.7848 17.4525 23.728 16.967 24.8264 16.7359C25.9318 16.5008 27.1186 16.5681 28.3866 16.9377ZM27.6008 19.7725C27.0408 19.612 26.5036 19.6019 25.9893 19.7425C25.4805 19.8846 25.0343 20.1436 24.6504 20.5196C24.2722 20.8972 24.0063 21.364 23.8529 21.92C23.6923 22.48 23.6696 23.0195 23.7848 23.5385C23.9071 24.0536 24.1435 24.5054 24.4941 24.894C24.8519 25.2786 25.308 25.5504 25.8624 25.7094C26.2782 25.8286 26.6858 25.8615 27.0852 25.808C27.4846 25.7545 27.8535 25.6293 28.192 25.4323C28.5376 25.2314 28.8369 24.9722 29.09 24.6547C29.343 24.3373 29.5275 23.9762 29.6436 23.5714C29.7923 23.0321 29.8062 22.502 29.6855 21.9814C29.5648 21.4608 29.3244 21.0018 28.9643 20.6045C28.6042 20.2073 28.1497 19.9299 27.6008 19.7725ZM38.8879 38.8858C37.7125 38.5487 36.7266 38.032 35.9302 37.3356C35.1394 36.6408 34.584 35.8366 34.264 34.9228C33.944 34.009 33.9136 33.0582 34.1728 32.0705L37.6658 33.0721C37.5154 33.743 37.6392 34.3575 38.0372 34.9157C38.4352 35.4738 38.989 35.8546 39.6987 36.0581C40.2642 36.2203 40.799 36.2386 41.303 36.1131C41.8141 35.9837 42.2561 35.7294 42.6288 35.3502C43.0087 34.9671 43.2829 34.4817 43.4514 33.894C43.6231 33.2952 43.6466 32.732 43.5219 32.2042C43.4028 31.678 43.158 31.2238 42.7876 30.8416C42.4172 30.4593 41.9472 30.1836 41.3777 30.0143C40.8787 29.8712 40.3642 29.8347 39.8341 29.9047C39.3095 29.9763 38.8661 30.1521 38.5038 30.4322L35.4664 28.9403L38.8487 20.1897L49.261 23.1754L48.4168 26.1194L40.9735 23.9851L39.3093 28.1251L39.4091 28.1537C39.8294 27.8182 40.3814 27.5985 41.0652 27.4946C41.749 27.3906 42.4652 27.446 43.2137 27.6606C44.2394 27.9547 45.0851 28.4582 45.7507 29.1711C46.4163 29.884 46.8612 30.7286 47.0852 31.7049C47.3109 32.6756 47.2644 33.7063 46.9456 34.797C46.6221 35.9463 46.0634 36.8901 45.2696 37.6286C44.483 38.363 43.537 38.8478 42.4315 39.0828C41.3332 39.3139 40.152 39.2482 38.8879 38.8858Z" fill="white"/>
<path d="M26.8542 48.6312L27.0445 47.9676C27.1889 47.4638 27.4282 47.0314 27.7622 46.6706C28.1014 46.3068 28.5123 46.0567 28.9947 45.9202C29.4825 45.7807 30.0233 45.7962 30.6173 45.9665C31.2194 46.1392 31.6889 46.4112 32.0257 46.7826C32.3666 47.1552 32.5804 47.5845 32.6672 48.0704C32.7592 48.5534 32.7324 49.0489 32.5867 49.5568L32.3965 50.2204C32.252 50.7243 32.0122 51.1587 31.677 51.5236C31.343 51.8844 30.9327 52.1325 30.4462 52.2679C29.9585 52.4073 29.4176 52.3919 28.8237 52.2215C28.2215 52.0489 27.7526 51.7748 27.417 51.3993C27.0802 51.0278 26.8658 50.6006 26.7738 50.1176C26.6829 49.6305 26.7097 49.1351 26.8542 48.6312ZM28.8325 48.4803L28.6422 49.1439C28.5588 49.4348 28.5498 49.7292 28.615 50.0272C28.6844 50.3264 28.9055 50.5294 29.2782 50.6363C29.651 50.7432 29.9414 50.689 30.1494 50.4738C30.3615 50.2598 30.5104 50.0032 30.5961 49.7042L30.7864 49.0406C30.8722 48.7416 30.8865 48.4442 30.8294 48.1486C30.7723 47.8529 30.5513 47.6499 30.1662 47.5395C29.7976 47.4338 29.5045 47.4894 29.2872 47.7063C29.0698 47.9233 28.9182 48.1813 28.8325 48.4803ZM22.4613 39.5782L22.6516 38.9146C22.7973 38.4067 23.0391 37.9729 23.3772 37.6132C23.7165 37.2494 24.1273 36.9993 24.6098 36.8628C25.0963 36.7274 25.6325 36.7438 26.2183 36.9117C26.8245 37.0856 27.296 37.3582 27.6328 37.7296C27.9696 38.1011 28.1835 38.5303 28.2743 39.0174C28.3663 39.5004 28.3395 39.9959 28.1939 40.5038L28.0036 41.1674C27.8579 41.6754 27.6161 42.1092 27.278 42.4688C26.944 42.8297 26.5337 43.0777 26.0472 43.2131C25.5659 43.3455 25.0262 43.326 24.4282 43.1545C23.8301 42.983 23.3606 42.7109 23.0197 42.3383C22.6841 41.9628 22.4697 41.5356 22.3765 41.0567C22.2886 40.5749 22.3168 40.082 22.4613 39.5782ZM24.4519 39.4308L24.2616 40.0944C24.1759 40.3935 24.1662 40.6899 24.2327 40.9838C24.3032 41.2789 24.5187 41.4781 24.8792 41.5815C25.2561 41.6896 25.5485 41.636 25.7565 41.4208C25.9686 41.2067 26.1175 40.9502 26.2033 40.6512L26.3936 39.9876C26.4793 39.6886 26.4936 39.3912 26.4366 39.0956C26.3795 38.7999 26.1564 38.5963 25.7672 38.4847C25.4026 38.3802 25.1131 38.439 24.8987 38.6612C24.6842 38.8835 24.5353 39.14 24.4519 39.4308ZM20.5309 49.3715L32.7906 39.2684L34.4004 39.7301L22.1407 49.8331L20.5309 49.3715Z" fill="white"/>
</svg>
