<svg width="63" height="63" viewBox="0 0 63 63" fill="none" xmlns="http://www.w3.org/2000/svg">
<rect x="14.0596" y="0.75" width="50" height="50" rx="25" transform="rotate(16 14.0596 0.75)" fill="#D3A605"/>
<path d="M18.785 32.8635L29.9 20.8646L29.9335 20.7477L21.6728 18.3789L22.5207 15.4221L34.5234 18.8638L33.6635 21.8624L22.5186 33.9341L18.785 32.8635ZM38.0479 38.6402C36.8674 38.3017 35.8772 37.7827 35.0774 37.0833C34.2832 36.3855 33.7254 35.5778 33.404 34.66C33.0826 33.7423 33.0521 32.7874 33.3124 31.7954L36.8205 32.8013C36.6695 33.4752 36.7938 34.0923 37.1935 34.6529C37.5932 35.2134 38.1494 35.5959 38.8622 35.8003C39.4302 35.9632 39.9673 35.9816 40.4734 35.8555C40.9868 35.7255 41.4306 35.4701 41.805 35.0894C42.1865 34.7046 42.4619 34.2171 42.6311 33.6268C42.8036 33.0255 42.8272 32.4597 42.702 31.9297C42.5823 31.4012 42.3365 30.945 41.9645 30.5612C41.5924 30.1773 41.1204 29.9003 40.5485 29.7303C40.0473 29.5866 39.5306 29.5499 38.9982 29.6202C38.4714 29.6921 38.026 29.8687 37.6621 30.1501L34.6116 28.6516L38.0085 19.8632L48.4659 22.8618L47.6181 25.8186L40.1425 23.675L38.4711 27.833L38.5714 27.8617C38.9934 27.5247 39.5478 27.304 40.2346 27.1997C40.9214 27.0953 41.6407 27.1509 42.3924 27.3664C43.4226 27.6618 44.2719 28.1675 44.9404 28.8835C45.6089 29.5995 46.0557 30.4477 46.2807 31.4282C46.5074 32.4032 46.4606 33.4383 46.1405 34.5337C45.8155 35.688 45.2545 36.6359 44.4573 37.3775C43.6672 38.1152 42.7171 38.602 41.6069 38.8381C40.5038 39.0702 39.3175 39.0042 38.0479 38.6402Z" fill="white"/>
<path d="M26.864 48.6312L27.0542 47.9676C27.1987 47.4638 27.4379 47.0314 27.7719 46.6706C28.1112 46.3068 28.5221 46.0567 29.0045 45.9202C29.4922 45.7807 30.0331 45.7962 30.627 45.9665C31.2292 46.1392 31.6987 46.4112 32.0355 46.7826C32.3764 47.1552 32.5902 47.5845 32.677 48.0704C32.769 48.5534 32.7422 49.0489 32.5965 49.5568L32.4062 50.2204C32.2618 50.7243 32.0219 51.1587 31.6868 51.5236C31.3528 51.8844 30.9425 52.1325 30.456 52.2679C29.9682 52.4073 29.4274 52.3919 28.8334 52.2215C28.2313 52.0489 27.7624 51.7748 27.4268 51.3993C27.09 51.0278 26.8755 50.6006 26.7835 50.1176C26.6927 49.6305 26.7195 49.1351 26.864 48.6312ZM28.8423 48.4803L28.652 49.1439C28.5686 49.4348 28.5595 49.7292 28.6248 50.0272C28.6942 50.3264 28.9152 50.5294 29.288 50.6363C29.6608 50.7432 29.9511 50.689 30.1591 50.4738C30.3712 50.2598 30.5202 50.0032 30.6059 49.7042L30.7962 49.0406C30.8819 48.7416 30.8963 48.4442 30.8392 48.1486C30.7821 47.8529 30.561 47.6499 30.176 47.5395C29.8073 47.4338 29.5143 47.4894 29.2969 47.7063C29.0796 47.9233 28.928 48.1813 28.8423 48.4803ZM22.4711 39.5782L22.6614 38.9146C22.807 38.4067 23.0489 37.9729 23.387 37.6132C23.7262 37.2494 24.1371 36.9993 24.6195 36.8628C25.1061 36.7274 25.6423 36.7438 26.228 36.9117C26.8343 37.0856 27.3058 37.3582 27.6426 37.7296C27.9794 38.1011 28.1932 38.5303 28.2841 39.0174C28.3761 39.5004 28.3493 39.9959 28.2036 40.5038L28.0134 41.1674C27.8677 41.6754 27.6258 42.1092 27.2878 42.4688C26.9538 42.8297 26.5435 43.0777 26.057 43.2131C25.5757 43.3455 25.036 43.326 24.4379 43.1545C23.8399 42.983 23.3704 42.7109 23.0295 42.3383C22.6939 41.9628 22.4795 41.5356 22.3863 41.0567C22.2983 40.5749 22.3266 40.082 22.4711 39.5782ZM24.4617 39.4308L24.2714 40.0944C24.1857 40.3935 24.176 40.6899 24.2425 40.9838C24.313 41.2789 24.5285 41.4781 24.889 41.5815C25.2658 41.6896 25.5583 41.636 25.7663 41.4208C25.9784 41.2067 26.1273 40.9502 26.213 40.6512L26.4033 39.9876C26.4891 39.6886 26.5034 39.3912 26.4463 39.0956C26.3892 38.7999 26.1661 38.5963 25.777 38.4847C25.4124 38.3802 25.1229 38.439 24.9085 38.6612C24.694 38.8835 24.5451 39.14 24.4617 39.4308ZM20.5407 49.3715L32.8004 39.2684L34.4102 39.7301L22.1505 49.8331L20.5407 49.3715Z" fill="white"/>
</svg>
