<svg width="63" height="63" viewBox="0 0 63 63" fill="none" xmlns="http://www.w3.org/2000/svg">
<rect x="14.0503" y="0.950195" width="50" height="50" rx="25" transform="rotate(16 14.0503 0.950195)" fill="#D3A605"/>
<path d="M22.9303 34.517C21.7294 34.1726 20.7222 33.6447 19.9086 32.9333C19.1007 32.2235 18.5332 31.4018 18.2063 30.4682C17.8794 29.5346 17.8483 28.5633 18.1132 27.5542L21.6818 28.5775C21.5281 29.2629 21.6546 29.8907 22.0612 30.4609C22.4678 31.0311 23.0336 31.4202 23.7587 31.6281C24.3364 31.7938 24.8828 31.8125 25.3977 31.6843C25.9199 31.5521 26.3714 31.2923 26.7522 30.9049C27.1403 30.5135 27.4204 30.0176 27.5926 29.4172C27.768 28.8054 27.792 28.23 27.6646 27.6908C27.5429 27.1532 27.2928 26.6892 26.9144 26.2987C26.536 25.9082 26.0558 25.6264 25.474 25.4535C24.9642 25.3073 24.4386 25.27 23.897 25.3415C23.3611 25.4146 22.908 25.5943 22.5379 25.8805L19.4348 24.3562L22.8902 15.4162L33.5279 18.4665L32.6655 21.4743L25.061 19.2938L23.3609 23.5234L23.4628 23.5526C23.8921 23.2099 24.4561 22.9854 25.1547 22.8792C25.8534 22.773 26.585 22.8296 27.3497 23.0488C28.3976 23.3493 29.2616 23.8637 29.9416 24.592C30.6217 25.3204 31.0761 26.1832 31.3051 27.1807C31.5356 28.1724 31.4881 29.2254 31.1624 30.3397C30.8319 31.5138 30.2611 32.4781 29.4502 33.2325C28.6465 33.9829 27.68 34.4782 26.5506 34.7183C25.4286 34.9544 24.2218 34.8873 22.9303 34.517ZM38.7775 39.2174C37.3177 38.7927 36.1634 38.0724 35.3144 37.0566C34.4712 36.0424 33.9604 34.7772 33.7822 33.261C33.6096 31.7464 33.799 30.0383 34.3504 28.1366C34.8945 26.2391 35.6386 24.7023 36.5827 23.5263C37.5325 22.3519 38.6312 21.5666 39.8789 21.1704C41.1339 20.7701 42.4893 20.7787 43.945 21.1961C45.4008 21.6135 46.5519 22.3237 47.3984 23.3265C48.2506 24.331 48.7682 25.5829 48.9513 27.0821C49.1361 28.5757 48.9536 30.2704 48.4038 32.1664C47.8564 34.0753 47.1054 35.6254 46.1508 36.8168C45.2018 38.0098 44.101 38.8129 42.8485 39.2261C41.5959 39.6393 40.2389 39.6364 38.7775 39.2174ZM39.6522 36.1671C40.6491 36.453 41.5887 36.1799 42.4709 35.3478C43.3532 34.5158 44.079 33.0963 44.6483 31.0895C45.0267 29.7697 45.2059 28.6318 45.1858 27.6759C45.1713 26.7216 44.981 25.9528 44.6149 25.3697C44.2544 24.7882 43.7428 24.4024 43.0801 24.2124C42.0888 23.9282 41.1537 24.1964 40.2747 25.0171C39.3957 25.8378 38.6699 27.2358 38.0974 29.2111C37.7141 30.5479 37.5272 31.7019 37.5368 32.6732C37.5537 33.6405 37.7444 34.4186 38.1089 35.0074C38.475 35.5905 38.9894 35.9771 39.6522 36.1671Z" fill="white"/>
<path d="M26.8449 48.8304L27.0352 48.1668C27.1797 47.663 27.4189 47.2306 27.7529 46.8698C28.0922 46.506 28.503 46.2559 28.9855 46.1194C29.4732 45.98 30.014 45.9954 30.608 46.1657C31.2101 46.3384 31.6796 46.6104 32.0164 46.9819C32.3573 47.3545 32.5712 47.7837 32.6579 48.2696C32.7499 48.7526 32.7231 49.2481 32.5775 49.756L32.3872 50.4196C32.2427 50.9235 32.0029 51.3579 31.6677 51.7228C31.3337 52.0837 30.9235 52.3317 30.4369 52.4671C29.9492 52.6065 29.4084 52.5911 28.8144 52.4208C28.2122 52.2481 27.7433 51.974 27.4077 51.5985C27.0709 51.227 26.8565 50.7998 26.7645 50.3168C26.6736 49.8297 26.7004 49.3343 26.8449 48.8304ZM28.8232 48.6795L28.6329 49.3431C28.5495 49.634 28.5405 49.9284 28.6058 50.2264C28.6751 50.5256 28.8962 50.7286 29.269 50.8355C29.6417 50.9424 29.9321 50.8882 30.1401 50.673C30.3522 50.459 30.5011 50.2024 30.5869 49.9034L30.7772 49.2398C30.8629 48.9408 30.8772 48.6434 30.8201 48.3478C30.7631 48.0521 30.542 47.8491 30.1569 47.7387C29.7883 47.633 29.4953 47.6886 29.2779 47.9056C29.0605 48.1225 28.909 48.3805 28.8232 48.6795ZM22.452 39.7774L22.6423 39.1138C22.788 38.6059 23.0298 38.1721 23.3679 37.8124C23.7072 37.4487 24.118 37.1985 24.6005 37.062C25.087 36.9267 25.6232 36.943 26.209 37.1109C26.8152 37.2848 27.2868 37.5574 27.6236 37.9289C27.9604 38.3003 28.1742 38.7295 28.265 39.2166C28.3571 39.6996 28.3303 40.1951 28.1846 40.703L27.9943 41.3666C27.8487 41.8746 27.6068 42.3084 27.2687 42.668C26.9347 43.0289 26.5245 43.277 26.0379 43.4123C25.5566 43.5447 25.017 43.5252 24.4189 43.3537C23.8208 43.1822 23.3514 42.9102 23.0105 42.5376C22.6748 42.162 22.4604 41.7348 22.3672 41.2559C22.2793 40.7741 22.3076 40.2813 22.452 39.7774ZM24.4426 39.63L24.2524 40.2936C24.1666 40.5927 24.157 40.8891 24.2234 41.183C24.294 41.4781 24.5095 41.6774 24.8699 41.7807C25.2468 41.8888 25.5392 41.8352 25.7472 41.62C25.9593 41.406 26.1083 41.1494 26.194 40.8504L26.3843 40.1868C26.47 39.8878 26.4844 39.5904 26.4273 39.2948C26.3702 38.9991 26.1471 38.7955 25.7579 38.6839C25.3934 38.5794 25.1039 38.6382 24.8894 38.8605C24.675 39.0827 24.526 39.3392 24.4426 39.63ZM20.5216 49.5707L32.7813 39.4677L34.3912 39.9293L22.1315 50.0323L20.5216 49.5707Z" fill="white"/>
</svg>
