<svg width="252" height="111" viewBox="0 0 252 111" fill="none" xmlns="http://www.w3.org/2000/svg">
<g filter="url(#filter0_d_1_1068)">
<mask id="path-1-inside-1_1_1068" fill="white">
<path d="M7.19995 28.6797C7.19995 15.4249 17.9451 4.67969 31.2 4.67969H220.61C233.865 4.67969 244.61 15.4249 244.61 28.6797V76.6797C244.61 89.9345 233.865 100.68 220.61 100.68H31.1999C17.9451 100.68 7.19995 89.9345 7.19995 76.6797V28.6797Z"/>
</mask>
<path d="M7.19995 28.6797C7.19995 15.4249 17.9451 4.67969 31.2 4.67969H220.61C233.865 4.67969 244.61 15.4249 244.61 28.6797V76.6797C244.61 89.9345 233.865 100.68 220.61 100.68H31.1999C17.9451 100.68 7.19995 89.9345 7.19995 76.6797V28.6797Z" fill="white" fill-opacity="0.01" shape-rendering="crispEdges"/>
<path d="M31.2 5.67969H220.61V3.67969H31.2V5.67969ZM243.61 28.6797V76.6797H245.61V28.6797H243.61ZM220.61 99.6797H31.1999V101.68H220.61V99.6797ZM8.19995 76.6797V28.6797H6.19995V76.6797H8.19995ZM31.1999 99.6797C18.4974 99.6797 8.19995 89.3822 8.19995 76.6797H6.19995C6.19995 90.4868 17.3928 101.68 31.1999 101.68V99.6797ZM243.61 76.6797C243.61 89.3822 233.313 99.6797 220.61 99.6797V101.68C234.417 101.68 245.61 90.4868 245.61 76.6797H243.61ZM220.61 5.67969C233.313 5.67969 243.61 15.9771 243.61 28.6797H245.61C245.61 14.8726 234.417 3.67969 220.61 3.67969V5.67969ZM31.2 3.67969C17.3928 3.67969 6.19995 14.8726 6.19995 28.6797H8.19995C8.19995 15.9771 18.4974 5.67969 31.2 5.67969V3.67969Z" fill="#838383" fill-opacity="0.25" mask="url(#path-1-inside-1_1_1068)"/>
<g clip-path="url(#clip0_1_1068)">
<g clip-path="url(#clip1_1_1068)">
<g clip-path="url(#clip2_1_1068)">
<path d="M52.4097 45.7201C54.4536 45.5656 57.4781 45.0092 60.418 43.064C63.3626 45.0121 66.3924 45.5673 68.4406 45.7208C68.3458 49.4634 68.16 52.1433 67.8632 54.1168C67.5122 56.4513 67.0337 57.586 66.5431 58.2677C66.0639 58.9337 65.4267 59.3843 64.1659 60.0811C63.9666 60.1913 63.7541 60.3064 63.5291 60.4282L63.5279 60.4288C62.6608 60.8985 61.6095 61.4678 60.4181 62.2386C59.2286 61.469 58.1792 60.9002 57.3138 60.431C57.0874 60.3084 56.8736 60.1924 56.6732 60.0816C55.4144 59.3851 54.7792 58.9349 54.3015 58.2696C53.8122 57.588 53.335 56.4531 52.9852 54.1178C52.6894 52.1439 52.5044 49.4633 52.4097 45.7201Z" fill="#009FE8"/>
<path fill-rule="evenodd" clip-rule="evenodd" d="M52.8068 30.5195H67.2924C75.47 30.5195 82.0993 37.1488 82.0993 45.3263V59.812C82.0993 67.9896 75.47 74.6188 67.2924 74.6188H52.8068C44.6292 74.6188 38 67.9896 38 59.812V45.3263C38 37.1488 44.6292 30.5195 52.8068 30.5195ZM61.8067 38.7037C61.0027 38.0321 59.8332 38.0321 59.0291 38.7037C55.7203 41.4673 51.9452 41.4488 50.407 41.4413C50.3329 41.4409 50.264 41.4405 50.2006 41.4405C49.6203 41.4405 49.0643 41.6733 48.6571 42.0868C48.2499 42.5001 48.0255 43.0596 48.0343 43.6398C48.1086 48.5673 48.3053 52.1268 48.6999 54.7601C49.094 57.3904 49.7132 59.3086 50.7815 60.7967C51.8615 62.3011 53.2453 63.1374 54.5756 63.8733C54.8124 64.0043 55.0512 64.134 55.2937 64.2657C56.4453 64.8911 57.6781 65.5606 59.1551 66.6201C59.9099 67.1616 60.926 67.1616 61.6808 66.6201C63.1591 65.5597 64.3936 64.8898 65.5471 64.2639C65.7883 64.133 66.0261 64.004 66.2618 63.8738C67.593 63.1381 68.9784 62.3023 70.0603 60.7987C71.131 59.3106 71.7524 57.3924 72.1481 54.7612C72.5442 52.1274 72.7417 48.5675 72.816 43.6398C72.8247 43.0596 72.6003 42.5001 72.1932 42.0868C71.786 41.6733 71.2299 41.4405 70.6497 41.4405C70.5856 41.4405 70.516 41.4409 70.4412 41.4413C68.8903 41.4488 65.1155 41.4671 61.8067 38.7037Z" fill="#009FE8"/>
<path d="M96.8919 48.2734H92.1046V45.452H105.141V48.2734H100.354V60.4128H96.8919V48.2734ZM108.421 50.432C108.82 49.8762 109.354 49.4557 110.024 49.1707C110.707 48.886 111.491 48.7433 112.374 48.7433V51.8212C112.005 51.7926 111.755 51.7783 111.627 51.7783C110.672 51.7783 109.924 52.049 109.382 52.5905C108.841 53.1176 108.57 53.9155 108.57 54.9842V60.4128H105.236V48.9143H108.421V50.432ZM124.742 48.9143V60.4128H121.578V59.0448C121.137 59.5433 120.61 59.9281 119.997 60.1989C119.384 60.4553 118.722 60.5838 118.009 60.5838C116.499 60.5838 115.303 60.149 114.419 59.28C113.536 58.4109 113.094 57.1215 113.094 55.4115V48.9143H116.428V54.92C116.428 56.7721 117.205 57.6985 118.758 57.6985C119.555 57.6985 120.197 57.4421 120.681 56.9288C121.165 56.4016 121.408 55.6254 121.408 54.5993V48.9143H124.742ZM130.417 60.5838C129.462 60.5838 128.529 60.4696 127.617 60.2419C126.705 59.9993 125.979 59.7004 125.437 59.3442L126.548 56.9505C127.061 57.278 127.681 57.5488 128.408 57.7622C129.135 57.9618 129.846 58.0616 130.545 58.0616C131.955 58.0616 132.661 57.7129 132.661 57.0143C132.661 56.6867 132.468 56.4515 132.084 56.3092C131.699 56.1669 131.108 56.0454 130.31 55.9456C129.37 55.8033 128.593 55.6393 127.98 55.4545C127.367 55.2692 126.833 54.9412 126.377 54.4713C125.936 54.001 125.715 53.3315 125.715 52.4621C125.715 51.7357 125.921 51.0945 126.335 50.5387C126.762 49.9686 127.374 49.5269 128.173 49.2137C128.985 48.9004 129.939 48.7433 131.036 48.7433C131.849 48.7433 132.654 48.8362 133.451 49.0215C134.264 49.1924 134.934 49.4345 135.461 49.7477L134.349 52.1202C133.338 51.5505 132.233 51.2654 131.036 51.2654C130.324 51.2654 129.79 51.3653 129.433 51.5644C129.077 51.764 128.9 52.0204 128.9 52.3341C128.9 52.6903 129.092 52.9393 129.476 53.082C129.861 53.2243 130.474 53.3598 131.314 53.4882C132.255 53.6448 133.024 53.8157 133.622 54.001C134.221 54.1719 134.741 54.4926 135.182 54.9629C135.624 55.4328 135.845 56.0884 135.845 56.9288C135.845 57.6412 135.632 58.2755 135.204 58.8309C134.776 59.3867 134.15 59.8214 133.323 60.1347C132.511 60.434 131.542 60.5838 130.417 60.5838ZM144.036 59.857C143.708 60.0991 143.302 60.2844 142.818 60.4128C142.348 60.5265 141.849 60.5838 141.322 60.5838C139.954 60.5838 138.893 60.2345 138.137 59.5363C137.396 58.8383 137.026 57.8121 137.026 56.4589V51.7357H135.252V49.1707H137.026V46.3713H140.36V49.1707H143.224V51.7357H140.36V56.4159C140.36 56.9006 140.482 57.278 140.723 57.5488C140.98 57.8052 141.336 57.9337 141.792 57.9337C142.319 57.9337 142.768 57.7909 143.139 57.5058L144.036 59.857ZM172.242 45.452L167.348 60.4128H163.63L160.338 50.2823L156.94 60.4128H153.243L148.327 45.452H151.918L155.295 55.9673L158.821 45.452H162.026L165.446 56.0528L168.93 45.452H172.242ZM176.44 48.7433C178.221 48.7433 179.589 49.1707 180.543 50.0259C181.498 50.8663 181.975 52.1414 181.975 53.8513V60.4128H178.855V58.9805C178.229 60.0492 177.06 60.5838 175.35 60.5838C174.466 60.5838 173.697 60.434 173.041 60.1347C172.4 59.8358 171.909 59.4223 171.567 58.8951C171.225 58.3679 171.054 57.7697 171.054 57.0997C171.054 56.0316 171.453 55.1907 172.251 54.5781C173.063 53.9655 174.31 53.6591 175.991 53.6591H178.642C178.642 52.9324 178.42 52.3766 177.978 51.9922C177.537 51.593 176.874 51.3934 175.991 51.3934C175.378 51.3934 174.773 51.4932 174.174 51.6928C173.59 51.878 173.091 52.1345 172.678 52.4621L171.481 50.1326C172.108 49.6909 172.856 49.349 173.725 49.1069C174.609 48.8644 175.514 48.7433 176.44 48.7433ZM176.183 58.3393C176.753 58.3393 177.259 58.2113 177.701 57.9549C178.143 57.6842 178.456 57.2924 178.642 56.7796V55.6037H176.354C174.987 55.6037 174.303 56.0528 174.303 56.9505C174.303 57.3779 174.466 57.7197 174.794 57.9761C175.136 58.2183 175.599 58.3393 176.183 58.3393ZM183.711 44.5547H187.044V60.4128H183.711V44.5547ZM188.856 44.5547H192.19V60.4128H188.856V44.5547ZM205.265 54.7061C205.265 54.749 205.245 55.0484 205.201 55.6037H196.503C196.66 56.3162 197.03 56.8789 197.614 57.2924C198.199 57.7054 198.925 57.912 199.795 57.912C200.393 57.912 200.92 57.8265 201.376 57.6555C201.846 57.4703 202.281 57.1856 202.679 56.8008L204.454 58.7242C203.371 59.9637 201.789 60.5838 199.709 60.5838C198.412 60.5838 197.265 60.3343 196.268 59.8358C195.271 59.3224 194.501 58.6174 193.96 57.7197C193.418 56.8221 193.147 55.8033 193.147 54.6635C193.147 53.5381 193.411 52.5262 193.938 51.6286C194.48 50.717 195.213 50.0115 196.14 49.513C197.08 48.9998 198.127 48.7433 199.281 48.7433C200.407 48.7433 201.426 48.9859 202.337 49.4701C203.249 49.9547 203.962 50.6528 204.475 51.5644C205.002 52.4621 205.265 53.5094 205.265 54.7061ZM199.303 51.2654C198.547 51.2654 197.914 51.4789 197.401 51.9067C196.887 52.3341 196.574 52.918 196.46 53.6591H202.124C202.01 52.9324 201.696 52.3553 201.183 51.928C200.671 51.4862 200.043 51.2654 199.303 51.2654ZM213.618 59.857C213.291 60.0991 212.885 60.2844 212.401 60.4128C211.93 60.5265 211.432 60.5838 210.905 60.5838C209.537 60.5838 208.476 60.2345 207.72 59.5363C206.979 58.8383 206.609 57.8121 206.609 56.4589V51.7357H204.835V49.1707H206.609V46.3713H209.943V49.1707H212.807V51.7357H209.943V56.4159C209.943 56.9006 210.064 57.278 210.306 57.5488C210.563 57.8052 210.918 57.9337 211.375 57.9337C211.902 57.9337 212.351 57.7909 212.722 57.5058L213.618 59.857Z" fill="white"/>
</g>
</g>
</g>
</g>
<defs>
<filter id="filter0_d_1_1068" x="0.199951" y="0.679688" width="251.41" height="110" filterUnits="userSpaceOnUse" color-interpolation-filters="sRGB">
<feFlood flood-opacity="0" result="BackgroundImageFix"/>
<feColorMatrix in="SourceAlpha" type="matrix" values="0 0 0 0 0 0 0 0 0 0 0 0 0 0 0 0 0 0 127 0" result="hardAlpha"/>
<feMorphology radius="1" operator="erode" in="SourceAlpha" result="effect1_dropShadow_1_1068"/>
<feOffset dy="3"/>
<feGaussianBlur stdDeviation="4"/>
<feComposite in2="hardAlpha" operator="out"/>
<feColorMatrix type="matrix" values="0 0 0 0 0 0 0 0 0 0 0 0 0 0 0 0 0 0 0.08 0"/>
<feBlend mode="normal" in2="BackgroundImageFix" result="effect1_dropShadow_1_1068"/>
<feBlend mode="normal" in="SourceGraphic" in2="effect1_dropShadow_1_1068" result="shape"/>
</filter>
<clipPath id="clip0_1_1068">
<rect width="175.81" height="44.31" fill="white" transform="translate(38 30.5195)"/>
</clipPath>
<clipPath id="clip1_1_1068">
<rect width="175.81" height="44.31" fill="white" transform="translate(38 30.5195)"/>
</clipPath>
<clipPath id="clip2_1_1068">
<rect width="175.81" height="44.3098" fill="white" transform="translate(38 30.5195)"/>
</clipPath>
</defs>
</svg>
