<svg width="207" height="111" viewBox="0 0 207 111" fill="none" xmlns="http://www.w3.org/2000/svg">
<g filter="url(#filter0_d_1_1073)">
<mask id="path-1-inside-1_1_1073" fill="white">
<path d="M7.60999 28.6797C7.60999 15.4249 18.3552 4.67969 31.61 4.67969H176C189.255 4.67969 200 15.4249 200 28.6797V76.6797C200 89.9345 189.255 100.68 176 100.68H31.61C18.3551 100.68 7.60999 89.9345 7.60999 76.6797V28.6797Z"/>
</mask>
<path d="M7.60999 28.6797C7.60999 15.4249 18.3552 4.67969 31.61 4.67969H176C189.255 4.67969 200 15.4249 200 28.6797V76.6797C200 89.9345 189.255 100.68 176 100.68H31.61C18.3551 100.68 7.60999 89.9345 7.60999 76.6797V28.6797Z" fill="white" fill-opacity="0.01" shape-rendering="crispEdges"/>
<path d="M31.61 5.67969H176V3.67969H31.61V5.67969ZM199 28.6797V76.6797H201V28.6797H199ZM176 99.6797H31.61V101.68H176V99.6797ZM8.60999 76.6797V28.6797H6.60999V76.6797H8.60999ZM31.61 99.6797C18.9074 99.6797 8.60999 89.3822 8.60999 76.6797H6.60999C6.60999 90.4868 17.8028 101.68 31.61 101.68V99.6797ZM199 76.6797C199 89.3822 188.703 99.6797 176 99.6797V101.68C189.807 101.68 201 90.4868 201 76.6797H199ZM176 5.67969C188.703 5.67969 199 15.9771 199 28.6797H201C201 14.8726 189.807 3.67969 176 3.67969V5.67969ZM31.61 3.67969C17.8029 3.67969 6.60999 14.8726 6.60999 28.6797H8.60999C8.60999 15.9771 18.9074 5.67969 31.61 5.67969V3.67969Z" fill="#838383" fill-opacity="0.25" mask="url(#path-1-inside-1_1_1073)"/>
<g clip-path="url(#clip0_1_1073)">
<g clip-path="url(#clip1_1_1073)">
<g clip-path="url(#clip2_1_1073)">
<path d="M62.8658 52.4706L73.0211 62.6259H69.4277C68.8223 62.6259 68.2169 62.3719 67.7872 61.9423L58.3545 52.4706L67.8263 42.9793C68.256 42.5496 68.8418 42.2957 69.4667 42.3153H73.0211L62.8658 52.4706ZM44.2543 42.9793C43.8247 42.5496 43.2388 42.2957 42.6139 42.3153H39.04L49.1952 52.4706L39.04 62.6259H42.6334C43.2388 62.6259 43.8442 62.3719 44.2739 61.9423L53.7261 52.451L44.2543 42.9793ZM56.0306 54.7945L46.5393 64.2663C46.1096 64.696 45.8753 65.2818 45.8753 65.9068V69.4806L56.0306 59.3254L66.1859 69.4806V65.8872C66.1859 65.2818 65.9514 64.6765 65.5218 64.2468L56.0306 54.7945ZM56.0306 50.1466L65.5218 40.6748C65.9514 40.2452 66.1859 39.6593 66.1859 39.0343V35.4604L56.0306 45.6157L45.8753 35.4604V39.0343C45.8753 39.6397 46.1096 40.2452 46.5393 40.6748L56.0306 50.1466Z" fill="url(#paint0_linear_1_1073)"/>
<path fill-rule="evenodd" clip-rule="evenodd" d="M148.974 40.3916V61.2685C148.954 61.6005 149.091 61.9325 149.325 62.1864C149.56 62.4402 149.892 62.5769 150.224 62.5769H150.595C150.946 62.5769 151.279 62.4402 151.513 62.1864C151.747 61.9325 151.884 61.6005 151.884 61.2685V40.3916H154.305V61.8153C154.305 63.4363 153.017 64.7448 151.396 64.7838H149.54C148.739 64.7838 147.978 64.4908 147.411 63.9245C146.845 63.3581 146.533 62.616 146.533 61.8153V40.3916H148.974ZM166.198 40.1572C167.819 40.1963 169.128 41.7196 169.128 43.36V45.2934C169.128 45.5669 168.952 45.8012 168.679 45.8793L166.667 46.4457V43.6725C166.667 42.9695 166.081 42.3836 165.379 42.3836C164.675 42.3836 164.089 42.95 164.089 43.6725V45.977C164.089 47.4026 165.144 49.2189 165.144 49.2189L168.035 54.7847C169.207 56.9915 169.109 58.6125 169.109 58.6125V61.6982C169.109 62.4988 168.796 63.28 168.23 63.8659C167.664 64.4518 166.882 64.7643 166.062 64.7838H164.539C162.898 64.6862 161.609 63.3386 161.609 61.6982V58.2415C161.609 57.968 161.785 57.7337 162.058 57.6556L164.07 57.0892V61.3076C164.07 62.0106 164.656 62.5769 165.379 62.5769C166.081 62.5769 166.667 61.9911 166.648 61.2685V58.5148C166.648 57.1088 165.593 55.2339 165.593 55.2339L162.742 49.668C161.57 47.4612 161.668 45.8402 161.668 45.8402V43.36C161.668 41.6805 163.015 40.1572 164.715 40.1572H166.198ZM120.48 40.1572C122.121 40.2353 123.41 41.6024 123.41 43.2428V61.7763C123.39 63.3972 122.101 64.7252 120.48 64.8033H118.625C116.965 64.7838 115.617 63.4362 115.598 61.7763V43.2233C115.598 42.4227 115.91 41.6415 116.477 41.0556C117.043 40.4697 117.824 40.1572 118.645 40.1377L120.48 40.1572ZM92.651 40.3916L92.0651 42.4227C91.987 42.696 91.7527 42.8718 91.4793 42.8718H87.5929V50.6445H91.616L91.0301 52.6756C90.952 52.9294 90.7177 53.1248 90.4442 53.1248H87.5929V62.0887H92.651L92.0847 64.1002C92.0066 64.3737 91.7722 64.5494 91.4988 64.5494H85.1713V40.3916H92.651ZM135.83 40.3916C137.51 40.4111 138.838 41.7586 138.838 43.4186V61.5028C138.838 63.1629 137.491 64.5299 135.83 64.5299H131.143V40.3916H135.83ZM103.919 48.1643L106.146 40.3916H108.626L105.169 52.4803L108.646 64.5689H106.165L103.919 56.7767L101.693 64.5494H99.2129L102.67 52.4803L99.1934 40.3916H101.674L103.919 48.1643ZM119.66 62.616C120.011 62.616 120.344 62.4598 120.578 62.2059C120.813 61.952 120.949 61.62 120.93 61.2685V43.6725C120.949 43.3209 120.813 42.989 120.578 42.7351C120.344 42.4813 120.011 42.3445 119.66 42.325H119.289C118.566 42.364 118 42.95 118 43.6725V61.2685C118 61.9911 118.566 62.5769 119.289 62.616H119.66ZM135.147 62.1083C135.83 62.1083 136.436 61.7568 136.436 60.8193V44.1217C136.436 43.2233 135.83 42.8718 135.147 42.8718H133.565V62.1083H135.147Z" fill="white"/>
</g>
</g>
</g>
</g>
<defs>
<filter id="filter0_d_1_1073" x="0.609985" y="0.679688" width="206.39" height="110" filterUnits="userSpaceOnUse" color-interpolation-filters="sRGB">
<feFlood flood-opacity="0" result="BackgroundImageFix"/>
<feColorMatrix in="SourceAlpha" type="matrix" values="0 0 0 0 0 0 0 0 0 0 0 0 0 0 0 0 0 0 127 0" result="hardAlpha"/>
<feMorphology radius="1" operator="erode" in="SourceAlpha" result="effect1_dropShadow_1_1073"/>
<feOffset dy="3"/>
<feGaussianBlur stdDeviation="4"/>
<feComposite in2="hardAlpha" operator="out"/>
<feColorMatrix type="matrix" values="0 0 0 0 0 0 0 0 0 0 0 0 0 0 0 0 0 0 0.08 0"/>
<feBlend mode="normal" in2="BackgroundImageFix" result="effect1_dropShadow_1_1073"/>
<feBlend mode="normal" in="SourceGraphic" in2="effect1_dropShadow_1_1073" result="shape"/>
</filter>
<linearGradient id="paint0_linear_1_1073" x1="39.0286" y1="52.4669" x2="60.5146" y2="52.4669" gradientUnits="userSpaceOnUse">
<stop stop-color="#00BFFF"/>
<stop offset="1" stop-color="#6619FF"/>
</linearGradient>
<clipPath id="clip0_1_1073">
<rect width="130.79" height="35.02" fill="white" transform="translate(38.41 35.1597)"/>
</clipPath>
<clipPath id="clip1_1_1073">
<rect width="130.79" height="35.02" fill="white" transform="translate(38.41 35.1597)"/>
</clipPath>
<clipPath id="clip2_1_1073">
<rect width="130.789" height="35.02" fill="white" transform="translate(38.4105 35.1597)"/>
</clipPath>
</defs>
</svg>
